<svg xmlns="http://www.w3.org/2000/svg" width="24.234" height="24.442" viewBox="0 0 24.234 24.442">
  <g id="Grupo_22964" data-name="Grupo 22964" transform="translate(-24.805 -1100.423)">
    <path id="Caminho_14683" data-name="Caminho 14683" d="M7010.228-1608.457l3.816,13.513s1.61-2.817,2.245-4.13a1.876,1.876,0,0,0,.291-1.122c-.334-3.278-2.235-9.057-4.489-9.091C7010.564-1609.444,7010.228-1608.457,7010.228-1608.457Z" transform="translate(-6982.333 2717.274)" fill="none" stroke="#ff6b00" stroke-width="1.5"/>
    <path id="Caminho_14684" data-name="Caminho 14684" d="M6994.865-1649.513l-1.546-4.814a2.187,2.187,0,0,1,3.137.457l1.273,2.657s.229,1.035-.544,1.122c-.021-.011-1.383,0-1.383,0a2.454,2.454,0,0,0-.534.229A1.85,1.85,0,0,0,6994.865-1649.513Z" transform="translate(-6967.646 2756.103)" fill="none" stroke="#ff6b00" stroke-width="1.5"/>
    <path id="Caminho_14685" data-name="Caminho 14685" d="M7052.494-1513.2s-.276-7.059,12.641-5.286c0,0,2.961.934,1.377,5.286C7066.509-1513.206,7052.494-1513.2,7052.494-1513.2Z" transform="translate(-7018.696 2637.312)" fill="none" stroke="#ff6b00" stroke-width="1.5"/>
  </g>
</svg>
