<svg xmlns="http://www.w3.org/2000/svg" width="37.875" height="41.662" viewBox="0 0 37.875 41.662">
  <path id="calandar" d="M18.937,34.087a1.894,1.894,0,1,0-1.339-.555A1.894,1.894,0,0,0,18.937,34.087Zm9.469,0a1.894,1.894,0,1,0-1.339-.555A1.894,1.894,0,0,0,28.406,34.087Zm0-7.575a1.894,1.894,0,1,0-1.339-.555A1.894,1.894,0,0,0,28.406,26.512Zm-9.469,0a1.894,1.894,0,1,0-1.339-.555A1.894,1.894,0,0,0,18.937,26.512ZM32.193,3.787H30.3V1.894a1.894,1.894,0,0,0-3.787,0V3.787H11.362V1.894a1.894,1.894,0,1,0-3.787,0V3.787H5.681A5.681,5.681,0,0,0,0,9.469V35.981a5.681,5.681,0,0,0,5.681,5.681H32.193a5.681,5.681,0,0,0,5.681-5.681V9.469a5.681,5.681,0,0,0-5.681-5.681Zm1.894,32.193a1.894,1.894,0,0,1-1.894,1.894H5.681a1.894,1.894,0,0,1-1.894-1.894V18.937h30.3Zm0-20.831H3.787V9.469A1.894,1.894,0,0,1,5.681,7.575H7.575V9.469a1.894,1.894,0,1,0,3.787,0V7.575h15.15V9.469a1.894,1.894,0,0,0,3.787,0V7.575h1.894a1.894,1.894,0,0,1,1.894,1.894ZM9.469,26.512a1.894,1.894,0,1,0-1.339-.555A1.893,1.893,0,0,0,9.469,26.512Zm0,7.575a1.894,1.894,0,1,0-1.339-.555A1.893,1.893,0,0,0,9.469,34.087Z" fill="#ff6b00"/>
</svg>
