<svg xmlns="http://www.w3.org/2000/svg" width="244" height="196.362" viewBox="0 0 244 196.362">
  <g id="Grupo_27886" data-name="Grupo 27886" transform="translate(-889 -217.638)">
    <ellipse id="Elipse_469" data-name="Elipse 469" cx="122" cy="71.5" rx="122" ry="71.5" transform="translate(889 271)" fill="#006fa6" opacity="0.34"/>
    <g id="Grupo_23076" data-name="Grupo 23076" transform="translate(865.704 -38.657)">
      <g id="Grupo_23069" data-name="Grupo 23069">
        <path id="Caminho_15318" data-name="Caminho 15318" d="M219.855,400.6c-2.129-2.661-7.186-5.19-7.186-5.19L180.718,376.65l5.832-11.178a26.866,26.866,0,0,0,4.522,1.2c1.5.133,5.185-1.331,4.941-2.928s-7.257-4.391-7.257-4.391l5.075-8.681s3.579,1.761,4.755,1.495,5.854-1.73,5.577-3.061-6.73-4.191-7.462-4.258l13.773-22.189L194.8,320.084l-9.143,9.991-34.375,30.008L112.2,338.525l-12.445-4.163,6.723-16.308-5.323-2.865L86.784,328.811l-5.816-1.779a.409.409,0,0,0-.418.671l2.981,3.176L60.036,339.2l5.19,3.543L91,338.534s16.414,12.566,21.736,15.361S136.752,368,136.752,368L58.04,398.607,64.3,402.6l46.446-8.25s4.374,4.125,7.439,4.524,5.692-2.928,5.692-2.928-1.587-3.193-3.106-3.193,14.371-2.529,14.371-2.529,2.779,1.809,5.182,3.106a5.824,5.824,0,0,0,2.607,3.174l30.415,19.918c3.654,2.393,9.579,2.775,13.233.853s3.655-5.42,0-7.813l-30.414-19.918a12.907,12.907,0,0,0-4.457-1.739L166,385.7l38.167,21.158s2.119,2,8.772,2.928a31.934,31.934,0,0,0,10.646,0S221.984,403.264,219.855,400.6Z" fill="#006fa6" opacity="0.3" style="mix-blend-mode: multiply;isolation: isolate"/>
        <g id="Grupo_23068" data-name="Grupo 23068">
          <g id="Grupo_22970" data-name="Grupo 22970">
            <path id="Caminho_15319" data-name="Caminho 15319" d="M103.386,277.044l-6.5,13.789-8.624-2.108-.343-.086-4.309-1.051L96.082,276.7l.294-.251,1.081-.947a.567.567,0,0,1,.489-.128l5.073.947A.507.507,0,0,1,103.386,277.044Z" fill="#e6e6e6"/>
          </g>
          <g id="Grupo_22971" data-name="Grupo 22971">
            <path id="Caminho_15320" data-name="Caminho 15320" d="M84.9,287.273l11.581-10.111.288-.246,1.088-.953,4.919.935-6.23,13.222Z" fill="#fff"/>
          </g>
          <g id="Grupo_22972" data-name="Grupo 22972">
            <path id="Caminho_15321" data-name="Caminho 15321" d="M98.985,277.2a.667.667,0,0,0-.47-.348l-2.139-.4-.294.251,2.378.446a.364.364,0,0,1,.25.19.354.354,0,0,1,.019.293L87.922,288.639l.343.086s10.7-10.9,10.727-10.941A.662.662,0,0,0,98.985,277.2Z" fill="#333"/>
          </g>
          <g id="Grupo_22981" data-name="Grupo 22981">
            <g id="Grupo_22973" data-name="Grupo 22973">
              <path id="Caminho_15322" data-name="Caminho 15322" d="M187.5,304.59s-3.237-.207-3.338-2.6a2.654,2.654,0,0,1,1.935-2.852l3.9.231Z" fill="gray"/>
            </g>
            <g id="Grupo_22974" data-name="Grupo 22974">
              <path id="Caminho_15323" data-name="Caminho 15323" d="M184.777,303.206s-3.237-.207-3.338-2.6a2.654,2.654,0,0,1,1.935-2.852l3.9.231Z" fill="gray"/>
            </g>
            <g id="Grupo_22975" data-name="Grupo 22975">
              <path id="Caminho_15324" data-name="Caminho 15324" d="M187.245,304.332a12.627,12.627,0,0,0,5.552,3.235,11.515,11.515,0,0,0,5.375.449l1.858-8.847s-1.274-1.636-5.348-1.815a13.87,13.87,0,0,0-7.029,1.561S185.666,301.837,187.245,304.332Z" fill="#ed2d2d"/>
            </g>
            <g id="Grupo_22976" data-name="Grupo 22976">
              <path id="Caminho_15325" data-name="Caminho 15325" d="M201.925,303.989c-.434,2.5-2.308,4.285-4.186,4s-3.049-2.547-2.615-5.043,2.308-4.286,4.186-4S202.359,301.493,201.925,303.989Z" fill="#e6e6e6"/>
            </g>
            <g id="Grupo_22977" data-name="Grupo 22977">
              <path id="Caminho_15326" data-name="Caminho 15326" d="M201.112,303.861c-.331,1.9-1.755,3.264-3.185,3.044a1.875,1.875,0,0,1-.629-.214,3.367,3.367,0,0,1-1.363-3.625c.324-1.87,1.717-3.215,3.117-3.044C200.549,300.248,201.442,301.966,201.112,303.861Z" fill="#4d4d4d"/>
            </g>
            <g id="Grupo_22978" data-name="Grupo 22978">
              <path id="Caminho_15327" data-name="Caminho 15327" d="M200.409,303.647c-.324,1.87-1.706,3.209-3.111,3.044a3.367,3.367,0,0,1-1.363-3.625c.324-1.87,1.717-3.215,3.117-3.044A3.377,3.377,0,0,1,200.409,303.647Z" fill="#333"/>
            </g>
            <g id="Grupo_22979" data-name="Grupo 22979">
              <path id="Caminho_15328" data-name="Caminho 15328" d="M198.8,303.325c-.085.546-.5.935-.919.869a.909.909,0,0,1-.611-1.108c.086-.546.5-.935.92-.869A.91.91,0,0,1,198.8,303.325Z" fill="#999"/>
            </g>
            <g id="Grupo_22980" data-name="Grupo 22980" opacity="0.4" style="mix-blend-mode: multiply;isolation: isolate">
              <path id="Caminho_15329" data-name="Caminho 15329" d="M198.907,306.348c0,.005-2.13.554-5.988-.5l-.092-.025c-3.309-.926-3.876-5.534.506-7.571l1.978-.828s-8.389-.4-10.671.56c-.456-.06-2.375,2.728-3.193,2.167a3.7,3.7,0,0,0-.008.45c.086,2.02,2.4,2.481,3.119,2.576a4.359,4.359,0,0,0,2.944,1.409,12.831,12.831,0,0,0,5.295,2.977,11.515,11.515,0,0,0,5.375.449,4.162,4.162,0,0,0,3.521-3.12A3.832,3.832,0,0,1,198.907,306.348Z" fill="#999"/>
            </g>
          </g>
          <g id="Grupo_22990" data-name="Grupo 22990">
            <g id="Grupo_22982" data-name="Grupo 22982">
              <path id="Caminho_15330" data-name="Caminho 15330" d="M195.963,291.277s-3.237-.207-3.339-2.6a2.654,2.654,0,0,1,1.936-2.852l3.9.231Z" fill="gray"/>
            </g>
            <g id="Grupo_22983" data-name="Grupo 22983">
              <path id="Caminho_15331" data-name="Caminho 15331" d="M193.238,289.893s-3.237-.207-3.339-2.6a2.654,2.654,0,0,1,1.936-2.852l3.9.231Z" fill="gray"/>
            </g>
            <g id="Grupo_22984" data-name="Grupo 22984">
              <path id="Caminho_15332" data-name="Caminho 15332" d="M195.706,291.019a12.627,12.627,0,0,0,5.552,3.235,11.511,11.511,0,0,0,5.374.449l1.858-8.847s-1.273-1.636-5.348-1.815a13.875,13.875,0,0,0-7.029,1.561S194.127,288.524,195.706,291.019Z" fill="#ed2d2d"/>
            </g>
            <g id="Grupo_22985" data-name="Grupo 22985">
              <path id="Caminho_15333" data-name="Caminho 15333" d="M210.385,290.676c-.433,2.5-2.308,4.285-4.186,4s-3.049-2.547-2.615-5.043,2.308-4.285,4.187-4S210.819,288.18,210.385,290.676Z" fill="#e6e6e6"/>
            </g>
            <g id="Grupo_22986" data-name="Grupo 22986">
              <path id="Caminho_15334" data-name="Caminho 15334" d="M209.572,290.548c-.33,1.9-1.754,3.264-3.184,3.044a1.888,1.888,0,0,1-.63-.214,3.37,3.37,0,0,1-1.363-3.625c.324-1.87,1.718-3.215,3.117-3.044C209.01,286.935,209.9,288.653,209.572,290.548Z" fill="#4d4d4d"/>
            </g>
            <g id="Grupo_22987" data-name="Grupo 22987">
              <path id="Caminho_15335" data-name="Caminho 15335" d="M208.869,290.334c-.324,1.87-1.705,3.209-3.111,3.044a3.37,3.37,0,0,1-1.363-3.625c.324-1.87,1.718-3.215,3.117-3.044A3.375,3.375,0,0,1,208.869,290.334Z" fill="#333"/>
            </g>
            <g id="Grupo_22988" data-name="Grupo 22988">
              <path id="Caminho_15336" data-name="Caminho 15336" d="M207.257,290.012c-.086.546-.5.935-.92.869a.91.91,0,0,1-.61-1.108c.085-.546.5-.935.919-.869A.91.91,0,0,1,207.257,290.012Z" fill="#999"/>
            </g>
            <g id="Grupo_22989" data-name="Grupo 22989" opacity="0.4" style="mix-blend-mode: multiply;isolation: isolate">
              <path id="Caminho_15337" data-name="Caminho 15337" d="M207.368,293.035c0,.005-2.13.554-5.988-.5l-.092-.025c-3.309-.926-3.876-5.534.505-7.571l1.978-.828s-8.388-.395-10.671.56c-.455-.06-2.374,2.728-3.193,2.167a3.912,3.912,0,0,0-.008.45c.086,2.02,2.4,2.481,3.119,2.577a4.363,4.363,0,0,0,2.945,1.408,12.824,12.824,0,0,0,5.295,2.977,11.511,11.511,0,0,0,5.374.449,4.161,4.161,0,0,0,3.521-3.12A3.828,3.828,0,0,1,207.368,293.035Z" fill="#999"/>
            </g>
          </g>
          <g id="Grupo_22991" data-name="Grupo 22991">
            <path id="Caminho_15338" data-name="Caminho 15338" d="M217.273,257.944l-28.073,45.8-22.614-3.569-.386-.062-8.275-1.308,12.383-10.054.3-.245,21.087-17.12.306-.25,15.879-12.9.318-.257,1.876-1.521a.738.738,0,0,1,.593-.153l6.394,1.155A.322.322,0,0,1,217.273,257.944Z" fill="#e6e6e6"/>
          </g>
          <g id="Grupo_22992" data-name="Grupo 22992">
            <path id="Caminho_15339" data-name="Caminho 15339" d="M210.67,257.548l-18.205,14.785-31.641,25.69,22.519,3.556,31.4-43.294Z" fill="#fff"/>
          </g>
          <g id="Grupo_22993" data-name="Grupo 22993">
            <path id="Caminho_15340" data-name="Caminho 15340" d="M210.917,258.683a.467.467,0,0,0-.349-.269l-2.371-.434-.318.257,2.641.477a.164.164,0,0,1,.116.092.145.145,0,0,1,0,.14l-14.205,13.16L192,271.134l-.306.25,4.462.972-18.984,17.585-6.565-1.437-.3.245,6.6,1.449-10.7,9.913.386.062s44.276-41.019,44.3-41.05A.468.468,0,0,0,210.917,258.683Z" fill="#333"/>
          </g>
          <g id="Grupo_23012" data-name="Grupo 23012">
            <g id="Grupo_23001" data-name="Grupo 23001">
              <g id="Grupo_22996" data-name="Grupo 22996">
                <g id="Grupo_22994" data-name="Grupo 22994">
                  <path id="Caminho_15341" data-name="Caminho 15341" d="M153.193,329.41a1.967,1.967,0,0,1-1.766,2.53,2.931,2.931,0,0,1-2.612-2.53,1.966,1.966,0,0,1,1.765-2.53A2.931,2.931,0,0,1,153.193,329.41Z" fill="#355059"/>
                </g>
                <g id="Grupo_22995" data-name="Grupo 22995">
                  <path id="Caminho_15342" data-name="Caminho 15342" d="M153.193,329.41a1.967,1.967,0,0,1-1.766,2.53,2.931,2.931,0,0,1-2.612-2.53,1.966,1.966,0,0,1,1.765-2.53A2.931,2.931,0,0,1,153.193,329.41Z" fill="#355059"/>
                </g>
              </g>
              <g id="Grupo_22997" data-name="Grupo 22997">
                <path id="Caminho_15343" data-name="Caminho 15343" d="M149.2,329.6l.991-.519c.576-.308,1.115.692.59,1.037l-.947.615Z" fill="#b3b3b3"/>
              </g>
              <g id="Grupo_23000" data-name="Grupo 23000">
                <g id="Grupo_22998" data-name="Grupo 22998">
                  <path id="Caminho_15344" data-name="Caminho 15344" d="M150.569,330.913a1.965,1.965,0,0,1-1.765,2.529,2.93,2.93,0,0,1-2.612-2.529,1.965,1.965,0,0,1,1.765-2.53A2.929,2.929,0,0,1,150.569,330.913Z" fill="#355059"/>
                </g>
                <g id="Grupo_22999" data-name="Grupo 22999">
                  <path id="Caminho_15345" data-name="Caminho 15345" d="M150.569,330.913a1.965,1.965,0,0,1-1.765,2.529,2.93,2.93,0,0,1-2.612-2.529,1.965,1.965,0,0,1,1.765-2.53A2.929,2.929,0,0,1,150.569,330.913Z" fill="#355059"/>
                </g>
              </g>
            </g>
            <g id="Grupo_23002" data-name="Grupo 23002">
              <path id="Caminho_15346" data-name="Caminho 15346" d="M149.942,326.817l.533,1.887-.783.639a4.943,4.943,0,0,1,.368.818,8.35,8.35,0,0,0,1.218.758h2.37v-.387s-1.855-1.913-1.855-1.97-.534-1.885-.534-1.885Z" fill="#b3b3b3"/>
            </g>
            <g id="Grupo_23010" data-name="Grupo 23010">
              <g id="Grupo_23005" data-name="Grupo 23005">
                <g id="Grupo_23003" data-name="Grupo 23003">
                  <path id="Caminho_15347" data-name="Caminho 15347" d="M157.645,330.919a1.966,1.966,0,0,1-1.765,2.53,2.93,2.93,0,0,1-2.612-2.53,1.966,1.966,0,0,1,1.765-2.53A2.931,2.931,0,0,1,157.645,330.919Z" fill="#355059"/>
                </g>
                <g id="Grupo_23004" data-name="Grupo 23004">
                  <path id="Caminho_15348" data-name="Caminho 15348" d="M157.645,330.919a1.966,1.966,0,0,1-1.765,2.53,2.93,2.93,0,0,1-2.612-2.53,1.966,1.966,0,0,1,1.765-2.53A2.931,2.931,0,0,1,157.645,330.919Z" fill="#355059"/>
                </g>
              </g>
              <g id="Grupo_23006" data-name="Grupo 23006">
                <path id="Caminho_15349" data-name="Caminho 15349" d="M153.648,331.11l.991-.52c.577-.307,1.116.692.59,1.037l-.946.615Z" fill="#b3b3b3"/>
              </g>
              <g id="Grupo_23009" data-name="Grupo 23009">
                <g id="Grupo_23007" data-name="Grupo 23007">
                  <path id="Caminho_15350" data-name="Caminho 15350" d="M155.022,332.422a1.966,1.966,0,0,1-1.765,2.53,2.929,2.929,0,0,1-2.612-2.53,1.965,1.965,0,0,1,1.765-2.53A2.93,2.93,0,0,1,155.022,332.422Z" fill="#355059"/>
                </g>
                <g id="Grupo_23008" data-name="Grupo 23008">
                  <path id="Caminho_15351" data-name="Caminho 15351" d="M155.022,332.422a1.966,1.966,0,0,1-1.765,2.53,2.929,2.929,0,0,1-2.612-2.53,1.965,1.965,0,0,1,1.765-2.53A2.93,2.93,0,0,1,155.022,332.422Z" fill="#355059"/>
                </g>
              </g>
            </g>
            <g id="Grupo_23011" data-name="Grupo 23011">
              <path id="Caminho_15352" data-name="Caminho 15352" d="M148.718,325.143l.783,2.655c.344.453,2.47.019,2.732-.726l-.726-2.731Z" fill="#b3b3b3"/>
            </g>
          </g>
          <g id="Grupo_23021" data-name="Grupo 23021">
            <g id="Grupo_23015" data-name="Grupo 23015">
              <g id="Grupo_23013" data-name="Grupo 23013">
                <ellipse id="Elipse_467" data-name="Elipse 467" cx="2.097" cy="2.641" rx="2.097" ry="2.641" transform="matrix(0.882, -0.472, 0.472, 0.882, 208.233, 328.883)" fill="#355059"/>
              </g>
              <g id="Grupo_23014" data-name="Grupo 23014">
                <ellipse id="Elipse_468" data-name="Elipse 468" cx="2.097" cy="2.641" rx="2.097" ry="2.641" transform="matrix(0.882, -0.472, 0.472, 0.882, 208.233, 328.883)" fill="#355059"/>
              </g>
            </g>
            <g id="Grupo_23016" data-name="Grupo 23016">
              <path id="Caminho_15353" data-name="Caminho 15353" d="M209.519,330.413l.991-.519c.577-.308,1.116.692.59,1.036l-.946.615Z" fill="#b3b3b3"/>
            </g>
            <g id="Grupo_23017" data-name="Grupo 23017">
              <path id="Caminho_15354" data-name="Caminho 15354" d="M210.584,330.223l-.879-3.724-1.509.267,1.029,3.824Z" fill="#b3b3b3"/>
            </g>
            <g id="Grupo_23020" data-name="Grupo 23020">
              <g id="Grupo_23018" data-name="Grupo 23018">
                <path id="Caminho_15355" data-name="Caminho 15355" d="M210.893,331.725a1.966,1.966,0,0,1-1.765,2.53,2.93,2.93,0,0,1-2.612-2.53,1.966,1.966,0,0,1,1.765-2.53A2.931,2.931,0,0,1,210.893,331.725Z" fill="#355059"/>
              </g>
              <g id="Grupo_23019" data-name="Grupo 23019">
                <path id="Caminho_15356" data-name="Caminho 15356" d="M210.893,331.725a1.966,1.966,0,0,1-1.765,2.53,2.93,2.93,0,0,1-2.612-2.53,1.966,1.966,0,0,1,1.765-2.53A2.931,2.931,0,0,1,210.893,331.725Z" fill="#355059"/>
              </g>
            </g>
          </g>
          <g id="Grupo_23030" data-name="Grupo 23030">
            <g id="Grupo_23022" data-name="Grupo 23022">
              <path id="Caminho_15357" data-name="Caminho 15357" d="M136.382,333.925s-3.237-.206-3.339-2.6a2.654,2.654,0,0,1,1.936-2.852l3.9.231Z" fill="gray"/>
            </g>
            <g id="Grupo_23023" data-name="Grupo 23023">
              <path id="Caminho_15358" data-name="Caminho 15358" d="M133.657,332.541s-3.237-.206-3.339-2.6a2.654,2.654,0,0,1,1.936-2.852l3.9.231Z" fill="gray"/>
            </g>
            <g id="Grupo_23024" data-name="Grupo 23024">
              <path id="Caminho_15359" data-name="Caminho 15359" d="M136.125,333.668a12.621,12.621,0,0,0,5.552,3.234,11.5,11.5,0,0,0,5.374.449l1.858-8.846s-1.273-1.637-5.348-1.815a13.87,13.87,0,0,0-7.029,1.561S134.546,331.172,136.125,333.668Z" fill="#ed2d2d"/>
            </g>
            <g id="Grupo_23025" data-name="Grupo 23025">
              <path id="Caminho_15360" data-name="Caminho 15360" d="M150.8,333.325c-.434,2.5-2.308,4.285-4.186,4s-3.049-2.547-2.615-5.044,2.308-4.285,4.186-4S151.238,330.828,150.8,333.325Z" fill="#e6e6e6"/>
            </g>
            <g id="Grupo_23026" data-name="Grupo 23026">
              <path id="Caminho_15361" data-name="Caminho 15361" d="M149.991,333.2c-.33,1.9-1.754,3.264-3.184,3.044a1.888,1.888,0,0,1-.63-.214,3.369,3.369,0,0,1-1.363-3.624c.324-1.871,1.718-3.215,3.117-3.044C149.429,329.584,150.321,331.3,149.991,333.2Z" fill="#4d4d4d"/>
            </g>
            <g id="Grupo_23027" data-name="Grupo 23027">
              <path id="Caminho_15362" data-name="Caminho 15362" d="M149.288,332.982c-.324,1.871-1.705,3.209-3.111,3.044a3.369,3.369,0,0,1-1.363-3.624c.324-1.871,1.718-3.215,3.117-3.044A3.376,3.376,0,0,1,149.288,332.982Z" fill="#333"/>
            </g>
            <g id="Grupo_23028" data-name="Grupo 23028">
              <path id="Caminho_15363" data-name="Caminho 15363" d="M147.676,332.661c-.086.546-.5.935-.92.869a.91.91,0,0,1-.61-1.108c.085-.546.5-.935.919-.869A.909.909,0,0,1,147.676,332.661Z" fill="#999"/>
            </g>
            <g id="Grupo_23029" data-name="Grupo 23029" opacity="0.4" style="mix-blend-mode: multiply;isolation: isolate">
              <path id="Caminho_15364" data-name="Caminho 15364" d="M147.786,335.683s-2.13.554-5.988-.5l-.092-.025c-3.308-.927-3.875-5.534.506-7.572l2.532-.914s-10.528.983-11.512-.435c-.455-.06-2.088,3.81-2.906,3.249a3.693,3.693,0,0,0-.008.45c.086,2.019,2.4,2.481,3.119,2.576a4.356,4.356,0,0,0,2.944,1.408,12.816,12.816,0,0,0,5.295,2.977,11.51,11.51,0,0,0,5.375.45,4.163,4.163,0,0,0,3.521-3.12A3.829,3.829,0,0,1,147.786,335.683Z" fill="#999"/>
            </g>
          </g>
          <g id="Grupo_23039" data-name="Grupo 23039">
            <g id="Grupo_23031" data-name="Grupo 23031">
              <path id="Caminho_15365" data-name="Caminho 15365" d="M109.437,341.173s-3.236-.206-3.338-2.6a2.654,2.654,0,0,1,1.935-2.852l3.9.231Z" fill="gray"/>
            </g>
            <g id="Grupo_23032" data-name="Grupo 23032">
              <path id="Caminho_15366" data-name="Caminho 15366" d="M106.712,339.789s-3.236-.206-3.338-2.6a2.654,2.654,0,0,1,1.935-2.852l3.9.231Z" fill="gray"/>
            </g>
            <g id="Grupo_23033" data-name="Grupo 23033">
              <path id="Caminho_15367" data-name="Caminho 15367" d="M109.18,340.916a12.628,12.628,0,0,0,5.552,3.234,11.51,11.51,0,0,0,5.375.45l1.858-8.847s-1.273-1.637-5.348-1.815a13.871,13.871,0,0,0-7.029,1.561S107.6,338.42,109.18,340.916Z" fill="#ed2d2d"/>
            </g>
            <g id="Grupo_23034" data-name="Grupo 23034">
              <path id="Caminho_15368" data-name="Caminho 15368" d="M123.86,340.573c-.434,2.5-2.308,4.285-4.186,4s-3.049-2.547-2.615-5.043,2.308-4.286,4.186-4S124.294,338.076,123.86,340.573Z" fill="#e6e6e6"/>
            </g>
            <g id="Grupo_23035" data-name="Grupo 23035">
              <path id="Caminho_15369" data-name="Caminho 15369" d="M123.047,340.444c-.33,1.9-1.754,3.264-3.185,3.044a1.853,1.853,0,0,1-.629-.214,3.367,3.367,0,0,1-1.363-3.624c.324-1.87,1.717-3.215,3.117-3.044C122.484,336.832,123.377,338.55,123.047,340.444Z" fill="#4d4d4d"/>
            </g>
            <g id="Grupo_23036" data-name="Grupo 23036">
              <path id="Caminho_15370" data-name="Caminho 15370" d="M122.344,340.23c-.324,1.871-1.705,3.209-3.111,3.044a3.367,3.367,0,0,1-1.363-3.624c.324-1.87,1.717-3.215,3.117-3.044A3.376,3.376,0,0,1,122.344,340.23Z" fill="#333"/>
            </g>
            <g id="Grupo_23037" data-name="Grupo 23037">
              <path id="Caminho_15371" data-name="Caminho 15371" d="M120.731,339.909c-.085.546-.5.935-.919.869a.908.908,0,0,1-.61-1.108c.085-.546.5-.935.919-.869A.909.909,0,0,1,120.731,339.909Z" fill="#999"/>
            </g>
            <g id="Grupo_23038" data-name="Grupo 23038" opacity="0.4" style="mix-blend-mode: multiply;isolation: isolate">
              <path id="Caminho_15372" data-name="Caminho 15372" d="M120.842,342.932s-2.13.554-5.988-.5l-.092-.025c-3.308-.927-3.875-5.534.506-7.571l2.532-.915s-10.528.983-11.512-.435c-.455-.06-2.088,3.81-2.906,3.249a3.689,3.689,0,0,0-.008.45c.086,2.02,2.4,2.481,3.119,2.576a4.356,4.356,0,0,0,2.944,1.408,12.816,12.816,0,0,0,5.3,2.977,11.51,11.51,0,0,0,5.375.45,4.163,4.163,0,0,0,3.521-3.12A3.834,3.834,0,0,1,120.842,342.932Z" fill="#999"/>
            </g>
          </g>
          <g id="Grupo_23059" data-name="Grupo 23059">
            <g id="Grupo_23040" data-name="Grupo 23040">
              <path id="Caminho_15373" data-name="Caminho 15373" d="M228.263,322.017a17.441,17.441,0,0,1-4.682,3.729A25.9,25.9,0,0,1,213.7,328.7l-.11-.018L199.622,326.5c-21.784-3.41-62.411-9.773-74.4-11.631-1.272-.2-2.225-.342-2.794-.428-2.127-.324-4.321-.758-6.54-1.32-.965-.245-1.931-.507-2.9-.8-1.167-.342-2.341-.727-3.508-1.149a59.723,59.723,0,0,1-11.8-5.69c-7.744-4.89-22.517-16.5-22.517-16.5s-.043-.037-.116-.11c-.055-.055-.1-.092-.141-.14-.415-.465-.953-1.388,1.687-1.076,11.919.813,43.4,4.584,43.4,4.584l3.381.525c.158.031.323.056.5.086,1.21.183,2.646.41,4.3.666,2.134.336,4.615.728,7.366,1.155,20.225,3.16,54.88,8.576,71.126,11.051,4.7.715,7.861,1.186,8.686,1.29.409.049.8.116,1.173.195a10.945,10.945,0,0,1,6.8,3.979c.1.147.2.282.275.41a15.676,15.676,0,0,0,1.815,1.993,29.18,29.18,0,0,1,3.148,3.49,4.886,4.886,0,0,1,.74,1.442A3.884,3.884,0,0,1,228.263,322.017Z" fill="#e6e6e6"/>
            </g>
            <g id="Grupo_23042" data-name="Grupo 23042">
              <g id="Grupo_23041" data-name="Grupo 23041">
                <path id="Caminho_15374" data-name="Caminho 15374" d="M224.585,314.5l-.053-.053a15.321,15.321,0,0,1-1.991-2.214c-.066-.109-.145-.222-.22-.328a9.715,9.715,0,0,0-6.073-3.508c-.357-.076-.715-.136-1.071-.178-1.032-.13-5.31-.776-8.716-1.294-16.548-2.522-51.945-8.054-71.032-11.037l-.1-.014c-2.467-.385-4.718-.739-6.7-1.051l-4.828-.752-.439,0-.084-.081-.1-.019-3.343-.52c-.309-.037-30.541-3.653-42.783-4.541,1.169.909,38.47,7.773,39.083,7.847l3.343.52.1.019.084.081.439,0,4.829.752c1.977.312,4.228.667,6.7,1.051l.1.014c19.087,2.983,54.484,8.516,71.032,11.037,3.406.518,7.684,1.164,8.716,1.294q.535.063,1.072.178a9.722,9.722,0,0,1,6.073,3.508c.074.106.153.219.22.328a15.3,15.3,0,0,0,1.99,2.214l.054.053c.215.216.437.438.66.663a3.148,3.148,0,0,0,4.431.052,1.8,1.8,0,0,0,.071-2.528C225.568,315.483,225.062,314.977,224.585,314.5Z" fill="#fff"/>
              </g>
            </g>
            <g id="Grupo_23043" data-name="Grupo 23043">
              <path id="Caminho_15375" data-name="Caminho 15375" d="M125.219,314.866c-1.272-.2-2.225-.342-2.794-.428-2.127-.324-4.321-.758-6.54-1.32-4.125-13.923,4.658-18.312,12.267-19.608,2.134.336,4.615.728,7.366,1.155C125.451,297.5,121.8,305.252,125.219,314.866Z" fill="#ed2d2d"/>
            </g>
            <g id="Grupo_23044" data-name="Grupo 23044">
              <path id="Caminho_15376" data-name="Caminho 15376" d="M213.588,328.686,199.622,326.5c-.184-.513-.367-1.051-.544-1.613-3.753-11.711,1.375-16.912,7.566-19.168,4.7.715,7.861,1.186,8.686,1.29.409.049.8.116,1.173.195C209.126,311.089,207.9,319.1,213.588,328.686Z" fill="#ed2d2d"/>
            </g>
            <g id="Grupo_23045" data-name="Grupo 23045">
              <path id="Caminho_15377" data-name="Caminho 15377" d="M112.982,312.317c-1.167-.342-2.341-.727-3.508-1.149-3.312-12.632,3.717-15.23,11.892-17.178C111.052,298.727,109.877,303.106,112.982,312.317Z" fill="#ed2d2d"/>
            </g>
            <g id="Grupo_23048" data-name="Grupo 23048">
              <g id="Grupo_23046" data-name="Grupo 23046">
                <path id="Caminho_15378" data-name="Caminho 15378" d="M225.4,313.583c-.843,2.438-5.562,4.247-10.928,5.372l.067-2.634c4.615-1.217,8.728-2.891,8.771-5.141.1.147.2.282.275.41A15.676,15.676,0,0,0,225.4,313.583Z" fill="#355059"/>
              </g>
              <g id="Grupo_23047" data-name="Grupo 23047">
                <path id="Caminho_15379" data-name="Caminho 15379" d="M225.4,313.583c-.843,2.438-5.562,4.247-10.928,5.372l.067-2.634c4.615-1.217,8.728-2.891,8.771-5.141.1.147.2.282.275.41A15.676,15.676,0,0,0,225.4,313.583Z" fill="#355059"/>
              </g>
            </g>
            <g id="Grupo_23056" data-name="Grupo 23056">
              <g id="Grupo_23049" data-name="Grupo 23049">
                <path id="Caminho_15380" data-name="Caminho 15380" d="M167.51,313.82c.232.037.422-.184.422-.49v-.72a.609.609,0,0,0-.422-.622c-.232-.037-.422.184-.422.49v.72A.609.609,0,0,0,167.51,313.82Z" fill="#333"/>
                <path id="Caminho_15381" data-name="Caminho 15381" d="M164.522,313.365c.232.036.422-.184.422-.49v-.72a.611.611,0,0,0-.422-.623c-.232-.036-.422.185-.422.491v.72A.609.609,0,0,0,164.522,313.365Z" fill="#333"/>
                <path id="Caminho_15382" data-name="Caminho 15382" d="M161.534,312.91c.232.036.422-.184.422-.49V311.7a.609.609,0,0,0-.422-.622c-.232-.036-.422.185-.422.49v.721A.609.609,0,0,0,161.534,312.91Z" fill="#333"/>
                <path id="Caminho_15383" data-name="Caminho 15383" d="M158.546,312.455c.232.036.422-.185.422-.491v-.72a.609.609,0,0,0-.422-.622c-.232-.036-.422.184-.422.49v.721A.61.61,0,0,0,158.546,312.455Z" fill="#333"/>
                <path id="Caminho_15384" data-name="Caminho 15384" d="M155.558,312c.232.037.422-.184.422-.49v-.72a.609.609,0,0,0-.422-.622c-.232-.037-.422.184-.422.49v.72A.609.609,0,0,0,155.558,312Z" fill="#333"/>
                <path id="Caminho_15385" data-name="Caminho 15385" d="M152.57,311.544c.232.037.422-.184.422-.49v-.72a.611.611,0,0,0-.422-.623c-.232-.036-.422.185-.422.491v.72A.609.609,0,0,0,152.57,311.544Z" fill="#333"/>
                <path id="Caminho_15386" data-name="Caminho 15386" d="M149.582,311.089c.232.036.422-.184.422-.49v-.721a.61.61,0,0,0-.422-.622c-.232-.036-.422.185-.422.491v.72A.609.609,0,0,0,149.582,311.089Z" fill="#333"/>
                <path id="Caminho_15387" data-name="Caminho 15387" d="M146.594,310.634c.232.036.422-.184.422-.49v-.721a.609.609,0,0,0-.422-.622c-.232-.036-.422.185-.422.49v.721A.609.609,0,0,0,146.594,310.634Z" fill="#333"/>
                <path id="Caminho_15388" data-name="Caminho 15388" d="M143.606,310.179c.232.036.422-.185.422-.491v-.72a.609.609,0,0,0-.422-.622c-.232-.036-.422.184-.422.49v.721A.61.61,0,0,0,143.606,310.179Z" fill="#333"/>
                <path id="Caminho_15389" data-name="Caminho 15389" d="M140.618,309.723c.232.037.422-.184.422-.49v-.72a.607.607,0,0,0-.422-.622c-.232-.037-.422.184-.422.49v.72A.609.609,0,0,0,140.618,309.723Z" fill="#333"/>
                <path id="Caminho_15390" data-name="Caminho 15390" d="M137.63,309.268c.233.037.423-.184.423-.49v-.72a.611.611,0,0,0-.423-.623c-.232-.036-.422.185-.422.491v.72A.609.609,0,0,0,137.63,309.268Z" fill="#333"/>
              </g>
              <g id="Grupo_23050" data-name="Grupo 23050">
                <path id="Caminho_15391" data-name="Caminho 15391" d="M128.494,307.724c.232.036.422-.185.422-.491v-.72a.609.609,0,0,0-.422-.622c-.233-.036-.423.184-.423.49v.721A.61.61,0,0,0,128.494,307.724Z" fill="#333"/>
                <path id="Caminho_15392" data-name="Caminho 15392" d="M125.443,307.233c.233.036.423-.185.423-.491v-.72a.608.608,0,0,0-.423-.622c-.232-.036-.422.184-.422.49v.721A.611.611,0,0,0,125.443,307.233Z" fill="#333"/>
                <path id="Caminho_15393" data-name="Caminho 15393" d="M122.393,306.742c.232.036.422-.185.422-.491v-.72a.608.608,0,0,0-.422-.622c-.232-.036-.422.184-.422.49v.721A.611.611,0,0,0,122.393,306.742Z" fill="#333"/>
                <path id="Caminho_15394" data-name="Caminho 15394" d="M119.343,306.251c.232.036.422-.185.422-.491v-.72a.609.609,0,0,0-.422-.622c-.232-.036-.422.184-.422.49v.721A.611.611,0,0,0,119.343,306.251Z" fill="#333"/>
                <path id="Caminho_15395" data-name="Caminho 15395" d="M116.293,305.76c.232.036.422-.185.422-.491v-.72a.609.609,0,0,0-.422-.622c-.232-.036-.422.184-.422.49v.721A.61.61,0,0,0,116.293,305.76Z" fill="#333"/>
                <path id="Caminho_15396" data-name="Caminho 15396" d="M113.243,305.269c.232.036.422-.185.422-.491v-.72a.609.609,0,0,0-.422-.622c-.232-.036-.422.184-.422.49v.721A.61.61,0,0,0,113.243,305.269Z" fill="#333"/>
                <path id="Caminho_15397" data-name="Caminho 15397" d="M110.193,304.778c.232.036.422-.185.422-.49v-.721a.609.609,0,0,0-.422-.622c-.232-.036-.422.184-.422.49v.721A.609.609,0,0,0,110.193,304.778Z" fill="#333"/>
                <path id="Caminho_15398" data-name="Caminho 15398" d="M107.143,304.287c.232.036.422-.185.422-.49v-.721a.609.609,0,0,0-.422-.622c-.233-.036-.423.184-.423.49v.721A.608.608,0,0,0,107.143,304.287Z" fill="#333"/>
                <path id="Caminho_15399" data-name="Caminho 15399" d="M104.092,303.8c.233.036.423-.185.423-.49v-.721a.609.609,0,0,0-.422-.622c-.233-.036-.423.184-.423.49v.721A.609.609,0,0,0,104.092,303.8Z" fill="#333"/>
              </g>
              <g id="Grupo_23051" data-name="Grupo 23051">
                <path id="Caminho_15400" data-name="Caminho 15400" d="M202.382,319.671c.232.036.422-.184.422-.49v-.721a.609.609,0,0,0-.422-.622c-.232-.036-.422.184-.422.49v.721A.609.609,0,0,0,202.382,319.671Z" fill="#333"/>
                <path id="Caminho_15401" data-name="Caminho 15401" d="M199.189,319.162c.233.037.423-.184.423-.49v-.72a.611.611,0,0,0-.423-.623c-.232-.036-.422.185-.422.491v.72A.609.609,0,0,0,199.189,319.162Z" fill="#333"/>
                <path id="Caminho_15402" data-name="Caminho 15402" d="M196,318.654c.232.036.422-.185.422-.491v-.72a.609.609,0,0,0-.422-.622c-.232-.036-.422.184-.422.49v.721A.61.61,0,0,0,196,318.654Z" fill="#333"/>
                <path id="Caminho_15403" data-name="Caminho 15403" d="M192.8,318.145c.233.036.423-.184.423-.49v-.721a.61.61,0,0,0-.422-.622c-.233-.036-.423.185-.423.491v.72A.609.609,0,0,0,192.8,318.145Z" fill="#333"/>
                <path id="Caminho_15404" data-name="Caminho 15404" d="M189.612,317.637c.232.036.422-.185.422-.491v-.72a.609.609,0,0,0-.422-.622c-.232-.037-.422.184-.422.49v.72A.611.611,0,0,0,189.612,317.637Z" fill="#333"/>
                <path id="Caminho_15405" data-name="Caminho 15405" d="M186.42,317.128c.232.036.422-.185.422-.49v-.721a.609.609,0,0,0-.422-.622c-.233-.036-.423.184-.423.49v.721A.608.608,0,0,0,186.42,317.128Z" fill="#333"/>
                <path id="Caminho_15406" data-name="Caminho 15406" d="M183.227,316.619c.232.037.422-.184.422-.49v-.72a.609.609,0,0,0-.422-.622c-.232-.037-.422.184-.422.49V316A.609.609,0,0,0,183.227,316.619Z" fill="#333"/>
                <path id="Caminho_15407" data-name="Caminho 15407" d="M180.035,316.111c.232.036.422-.185.422-.491v-.72a.609.609,0,0,0-.422-.622c-.232-.036-.422.184-.422.49v.721A.609.609,0,0,0,180.035,316.111Z" fill="#333"/>
                <path id="Caminho_15408" data-name="Caminho 15408" d="M176.842,315.6c.233.036.423-.184.423-.49v-.721a.61.61,0,0,0-.423-.622c-.232-.036-.422.185-.422.491v.72A.609.609,0,0,0,176.842,315.6Z" fill="#333"/>
              </g>
              <g id="Grupo_23052" data-name="Grupo 23052">
                <path id="Caminho_15409" data-name="Caminho 15409" d="M172.225,318.478a2.3,2.3,0,0,1-1.6-2.35v-2.609a2.312,2.312,0,0,1,.516-1.518,1.3,1.3,0,0,1,1.213-.49,2.3,2.3,0,0,1,1.6,2.351v2.608a2.312,2.312,0,0,1-.516,1.518,1.519,1.519,0,0,1-.467.373A1.217,1.217,0,0,1,172.225,318.478Zm-.945-6.28a1.812,1.812,0,0,0-.383,1.187v2.608a2.105,2.105,0,0,0,1.462,2.154,1.01,1.01,0,0,0,.946-.356,1.813,1.813,0,0,0,.382-1.187V314a2.107,2.107,0,0,0-1.462-2.154,1.006,1.006,0,0,0-.611.091A1.087,1.087,0,0,0,171.28,312.2Z" fill="#333"/>
              </g>
              <g id="Grupo_23053" data-name="Grupo 23053">
                <path id="Caminho_15410" data-name="Caminho 15410" d="M132.572,312.744a2.3,2.3,0,0,1-1.6-2.351v-2.608a2.316,2.316,0,0,1,.516-1.519,1.308,1.308,0,0,1,1.214-.49,2.3,2.3,0,0,1,1.6,2.351v2.609a2.315,2.315,0,0,1-.516,1.518,1.52,1.52,0,0,1-.467.373A1.215,1.215,0,0,1,132.572,312.744Zm-.946-6.281a1.817,1.817,0,0,0-.382,1.187v2.608a2.105,2.105,0,0,0,1.462,2.154,1.006,1.006,0,0,0,.945-.355,1.812,1.812,0,0,0,.382-1.187v-2.608a2.1,2.1,0,0,0-1.461-2.154,1,1,0,0,0-.612.091A1.094,1.094,0,0,0,131.626,306.463Z" fill="#333"/>
              </g>
              <g id="Grupo_23054" data-name="Grupo 23054">
                <path id="Caminho_15411" data-name="Caminho 15411" d="M172.214,314.752c.232.036.422-.184.422-.49v-.721a.61.61,0,0,0-.422-.622c-.232-.036-.422.185-.422.491v.72A.609.609,0,0,0,172.214,314.752Z" fill="#333"/>
              </g>
              <g id="Grupo_23055" data-name="Grupo 23055">
                <path id="Caminho_15412" data-name="Caminho 15412" d="M132.551,308.855c.232.036.422-.184.422-.49v-.721a.609.609,0,0,0-.422-.622c-.232-.036-.422.185-.422.491v.72A.609.609,0,0,0,132.551,308.855Z" fill="#333"/>
              </g>
            </g>
            <g id="Grupo_23057" data-name="Grupo 23057">
              <path id="Caminho_15413" data-name="Caminho 15413" d="M202.469,323.746a2.3,2.3,0,0,1-1.6-2.351v-2.608a2.312,2.312,0,0,1,.516-1.518,1.308,1.308,0,0,1,1.214-.491,2.3,2.3,0,0,1,1.6,2.351v2.609a2.314,2.314,0,0,1-.516,1.518,1.52,1.52,0,0,1-.467.373A1.215,1.215,0,0,1,202.469,323.746Zm-.946-6.28a1.812,1.812,0,0,0-.382,1.186v2.609a2.1,2.1,0,0,0,1.462,2.153,1.008,1.008,0,0,0,.945-.355,1.811,1.811,0,0,0,.382-1.187v-2.608a2.1,2.1,0,0,0-1.461-2.154,1,1,0,0,0-.612.091A1.1,1.1,0,0,0,201.523,317.466Z" fill="#333"/>
            </g>
            <g id="Grupo_23058" data-name="Grupo 23058" style="mix-blend-mode: multiply;isolation: isolate">
              <path id="Caminho_15414" data-name="Caminho 15414" d="M228.257,322.023a17.415,17.415,0,0,1-4.676,3.723A25.9,25.9,0,0,1,213.7,328.7l-.11-.018L199.622,326.5c-21.784-3.41-62.411-9.773-74.4-11.631-1.272-.2-2.225-.342-2.794-.428-2.127-.324-4.321-.758-6.54-1.32-.965-.245-1.931-.507-2.9-.8-1.167-.342-2.341-.727-3.508-1.149a59.723,59.723,0,0,1-11.8-5.69c-7.744-4.89-22.517-16.5-22.517-16.5s-.043-.037-.116-.11c7.726,4.26,18.954,9.718,22.633,12.047a59.781,59.781,0,0,0,11.8,5.691c1.167.421,2.341.806,3.508,1.149.972.293,1.938.556,2.9.8,2.219.562,4.413,1,6.54,1.32.569.086,1.522.233,2.794.428,11.992,1.858,52.619,8.221,74.4,11.632l13.966,2.188.11.018S223.972,324.566,228.257,322.023Z" fill="#e6e6e6"/>
            </g>
          </g>
          <g id="Grupo_23060" data-name="Grupo 23060">
            <path id="Caminho_15415" data-name="Caminho 15415" d="M167.93,320.911,60.662,348.77a3.655,3.655,0,0,1-1.589.055l-5.916-1.076a.251.251,0,0,1-.049-.476l4.235-1.785.514-.22L87.794,332.64l.422-.177L116.1,320.7l.44-.183,21.515-9.077,9.932,1.424.624.092,18.477,2.653C170.632,316.125,170.3,320.4,167.93,320.911Z" fill="#e6e6e6"/>
          </g>
          <g id="Grupo_23061" data-name="Grupo 23061">
            <path id="Caminho_15416" data-name="Caminho 15416" d="M148.431,314.163l-.618-.091-9.6-1.376L88.689,333.59l-30.351,12.8-.521.223-1.227.517,2.153.392L163.9,316.383Z" fill="#fff"/>
          </g>
          <g id="Grupo_23062" data-name="Grupo 23062">
            <path id="Caminho_15417" data-name="Caminho 15417" d="M88.6,295.491,58.914,302.74a2.871,2.871,0,0,1-1.137.049l-4.853-.74a.264.264,0,0,1-.061-.5l3.612-1.565.526-.232,21.82-9.456,3.564,1.149.464.153,5.752,1.858C89.469,293.81,89.8,295.118,88.6,295.491Z" fill="#e6e6e6"/>
          </g>
          <g id="Grupo_23063" data-name="Grupo 23063">
            <path id="Caminho_15418" data-name="Caminho 15418" d="M58.221,302.213a2.072,2.072,0,0,1-.344-.028l-3.66-.558,2.5-1.083.53-.234,21.6-9.362,3.344,1.078.461.152,5.755,1.859a.629.629,0,0,1,.356.542c0,.055-.01.222-.35.328l-29.65,7.239A2.27,2.27,0,0,1,58.221,302.213Z" fill="#fff"/>
          </g>
          <g id="Grupo_23064" data-name="Grupo 23064">
            <path id="Caminho_15419" data-name="Caminho 15419" d="M82.385,291.444,60.124,300.02a2.669,2.669,0,0,1-1.075.049L57,299.751l-.526.232,2.525.385a3.086,3.086,0,0,0,.464.037,3.165,3.165,0,0,0,.752-.092L82.849,291.6Z" fill="#333"/>
          </g>
          <g id="Grupo_23065" data-name="Grupo 23065">
            <path id="Caminho_15420" data-name="Caminho 15420" d="M91.3,290.3l-7.609-1.2-.373-.061-3.582-.568L68.033,262.2a.3.3,0,0,1,.306-.416l1.84.233.367.042,3.19.4a.454.454,0,0,1,.312.189l18.746,26.515C93.283,289.745,92.653,290.094,91.3,290.3Z" fill="#ed2d2d"/>
          </g>
          <g id="Grupo_23066" data-name="Grupo 23066">
            <path id="Caminho_15421" data-name="Caminho 15421" d="M147.986,312.861l-25.206,9.554-6.241-1.9-.44.183,6.21,1.9L92.5,333.887l-4.284-1.424-.422.177,4.254,1.418L61.561,345.61a3.554,3.554,0,0,1-1.522.055l-2.182-.4-.514.22,2.641.477a3.719,3.719,0,0,0,.684.061,3.831,3.831,0,0,0,.984-.129l86.958-32.944Z" fill="#333"/>
          </g>
          <g id="Grupo_23067" data-name="Grupo 23067">
            <path id="Caminho_15422" data-name="Caminho 15422" d="M83.693,289.091l-.373-.061-13.141-27.01.367.043Z" fill="#333"/>
          </g>
        </g>
      </g>
      <g id="Grupo_23075" data-name="Grupo 23075">
        <g id="Grupo_23072" data-name="Grupo 23072">
          <path id="Caminho_15423" data-name="Caminho 15423" d="M149,388.876a4.9,4.9,0,0,0-1.393,2.895,4.663,4.663,0,0,0,2.074,2.484l2.314,3.17a5.934,5.934,0,0,0,2.634,1.793,7.981,7.981,0,0,0,3.262.061,3.414,3.414,0,0,0,2.417-1.889c-.262-.894-1.507-1.922-3.114-2.892l-2.229-2.691-.1-2.826-4.111-1.955Z"/>
          <path id="Caminho_15424" data-name="Caminho 15424" d="M174.62,366.4l-4.584,13.886c-.05.125-.1.247-.16.367a11.3,11.3,0,0,1-3.712,3.924c-3.3,2.394-7.763,4.51-10.469,7.418-2.4.886-6.668-.893-6.668-3.491a35.729,35.729,0,0,1,4.227-5.122,47.256,47.256,0,0,1,7.193-5.562l3-11.062Z" fill="#0b151a"/>
          <path id="Caminho_15425" data-name="Caminho 15425" d="M174.62,366.4l-4.584,13.886c-.05.125-.1.247-.16.367l-3.712,3.924-3.381-3.048-9.529,1.853a47.256,47.256,0,0,1,7.193-5.562l3-11.062Z" fill="#534741" opacity="0.75" style="mix-blend-mode: multiply;isolation: isolate"/>
          <path id="Caminho_15426" data-name="Caminho 15426" d="M184.092,364.2l1.22,1.407A3.356,3.356,0,0,0,187,368.144l1.25,1.156.4.947c.465.489.765.332,1-.071v.656l-.094,1.534-.532,1.012c-.157.507.03.565.345.455.045.4.288.456.625.344l.406-.964c.235.366.615.485.751,0l.406-2.131A8.2,8.2,0,0,0,191,368.05a12.732,12.732,0,0,0-3.447-3.314l-1.305-1.907Z" fill="#ffb294"/>
          <path id="Caminho_15427" data-name="Caminho 15427" d="M176.2,410.462a9.466,9.466,0,0,0,.667,4.122,3.34,3.34,0,0,0,1.584,1.047,4.039,4.039,0,0,0,1.959,1.834c2.178.823,6.173-.469,6.767-2.272a6.561,6.561,0,0,0-3.1-2.855l-2.718-2.636-.836-3.012-4.616,1.105Z"/>
          <path id="Caminho_15428" data-name="Caminho 15428" d="M182,409.031c-.853,1.916-2.851,2.616-6.128,1.961q-.745-1.707-1.45-3.422a144.723,144.723,0,0,1-5.652-16.464l-7.843-17.389-1.061-2.353,5.327-1.3,4.8-1.17q.717,1.7,1.393,3.388.544,1.366,1.056,2.727l.06.155a93.365,93.365,0,0,1,4.119,13.93Z" fill="#1e3a47"/>
          <path id="Caminho_15429" data-name="Caminho 15429" d="M174.417,407.563a144.71,144.71,0,0,1-5.649-16.457l-7.843-17.389,2.208-1.978,2.058-1.676,4.057-3.3,2.138,5.519,1.056,2.727.06.155-4.172,4.154,2.086,11.789Z" fill="#534741" opacity="0.5" style="mix-blend-mode: multiply;isolation: isolate"/>
          <path id="Caminho_15430" data-name="Caminho 15430" d="M172.911,350.105l11.342,15.611a8.383,8.383,0,0,0,3.806-2.46l-12.522-21.779a7.5,7.5,0,0,0-4.606-3.191Z" fill="#355059"/>
          <path id="Caminho_15431" data-name="Caminho 15431" d="M147.609,365.924l-.687,2.22a6.919,6.919,0,0,0-2.251,2.688.854.854,0,0,0,.437,1.126l-.093.875a.72.72,0,0,0,.844.563,1.341,1.341,0,0,0,1.031.906l.5.907,1.313,1.157c.546.208.953-.11.562-.657l-.875-1.438.636-1.375.958-.063v1.547c.032.7.594.954.807.472l.538-1.831a6.024,6.024,0,0,0-1.032-3.377l.656-2.782Z" fill="#ffb294"/>
          <path id="Caminho_15432" data-name="Caminho 15432" d="M170.51,338.106l3.337,10.439s2.444-3.91,1.162-7.278C173.989,338.586,170.51,338.106,170.51,338.106Z" fill="#355059"/>
          <path id="Caminho_15433" data-name="Caminho 15433" d="M177.16,369.64a4.347,4.347,0,0,1-2.191,1.423,5.745,5.745,0,0,1-3.48-2.318c-.629,2.887-2.359,6.918-3.139,7.518-1.263,1.107-4.55,1.027-7.384-.206a8.468,8.468,0,0,1-3.886-3.13c-.725-1.629.591-5.423.451-10.024l-.657-6.023-1.183-10.855a41.4,41.4,0,0,1,8.509-7.439h7.289c1.67,1.567,2.587,4.077,3.081,7.12,0,0-.081,12.186.439,15.138a41.2,41.2,0,0,0,2.422,7.281A1.576,1.576,0,0,1,177.16,369.64Z" fill="#355059"/>
          <path id="Caminho_15434" data-name="Caminho 15434" d="M167.53,344.146l-5.4-.008,8.562,15.266c2.433-5.777,2.972-11.266.072-17.3Z" fill="#d4eeff"/>
          <path id="Caminho_15435" data-name="Caminho 15435" d="M167.431,344.345l-.155,2.04,1.294,1.92c.457,2.929,1.24,6.12,1.2,8.4l1.05,2.871,1.07-2.911a87.545,87.545,0,0,0-2.4-9.178l-.082-2.5-1.4-.88Z" fill="#0071bc"/>
          <path id="Caminho_15436" data-name="Caminho 15436" d="M164.936,337.807,162,340.14c-1.468,4.486,2.2,6.327,4.6,8.825l1.406-3.919,3.481.679-1.28-6.383Z" fill="#a0cee8"/>
          <path id="Caminho_15437" data-name="Caminho 15437" d="M163.132,339.243c-2.163,1.653-1,4.895,1.518,7.862,2.272,2.675,5.92,8.64,6.318,13.03-2.258-4.3-6.278-9.64-8.478-11.17l.642-1.58-1.464.329a8.551,8.551,0,0,1-1.9-5.848Z" fill="#1e3a47"/>
          <path id="Caminho_15438" data-name="Caminho 15438" d="M168.33,338.666c3.16,3.04,5,15.568,2.424,21.067,2.828-3.415,3.718-8.573,2.575-16.667l-.839-.52.243-.88-2.683-3.24Z" fill="#1e3a47"/>
          <g id="Grupo_23070" data-name="Grupo 23070">
            <path id="Caminho_15439" data-name="Caminho 15439" d="M168.734,344.353a1.252,1.252,0,0,1-.725.693c-2.978.878-5.419-2.52-5.078-4.521.278-2.059.439-3.18.439-3.18l5.76,1.421s.062.54.1,1.3A10.239,10.239,0,0,1,168.734,344.353Z" fill="#ffb294"/>
            <path id="Caminho_15440" data-name="Caminho 15440" d="M168.734,344.353a1.665,1.665,0,0,1-.943.312c-2.722,0-3.591-5.129-3.591-5.129l5.026.533A10.239,10.239,0,0,1,168.734,344.353Z" fill="#ffb294" opacity="0.5" style="mix-blend-mode: multiply;isolation: isolate"/>
            <path id="Caminho_15441" data-name="Caminho 15441" d="M163.82,338.346a9.268,9.268,0,0,0,1.74,3.57,6.747,6.747,0,0,0,3.57,1.65,1.8,1.8,0,0,0,1.65-.54c.44-.516.71-5.26.71-5.26a14.191,14.191,0,0,0-.262-3.406c-.32-1.5-1.408-4.834-5.788-4.234a4.222,4.222,0,0,0-3.7,3.69c-.219,1.479.965,4.11.965,4.11Z" fill="#ffb294"/>
            <path id="Caminho_15442" data-name="Caminho 15442" d="M162.66,338.232l2.08,1.11.157-1.244a1.013,1.013,0,0,1,1.086-1.027,7.856,7.856,0,0,0,4-.7,2.9,2.9,0,0,0,1.637-1.62c.7-2.7-2.855-4.784-5.537-4.694-3.256.109-4.574,2.295-4.579,4.224A10.377,10.377,0,0,0,162.66,338.232Z"/>
            <path id="Caminho_15443" data-name="Caminho 15443" d="M163.125,336.551a.717.717,0,0,0-.878.133.688.688,0,0,0-.108.516,1.755,1.755,0,0,0,.182.508,8.884,8.884,0,0,0,.458.82,1,1,0,0,0,.551.5c.254.06.56.235.7.013a2.135,2.135,0,0,0-.9-2.491Z" fill="#ffb294"/>
          </g>
          <path id="Caminho_15444" data-name="Caminho 15444" d="M160.987,376.064a8.475,8.475,0,0,1-3.907-3.137c-.725-1.629.591-5.423.451-10.024l-.657-6.023,4.516-3.972a82.052,82.052,0,0,0-2.419,10.317C158.436,367.326,160.987,376.064,160.987,376.064Z" fill="#534741" opacity="0.5" style="mix-blend-mode: multiply;isolation: isolate"/>
          <g id="Grupo_23071" data-name="Grupo 23071">
            <path id="Caminho_15445" data-name="Caminho 15445" d="M155.927,345.754c-1.764,1.861-3.2,5-5.817,10.02l-3.564,11.918c0,1.462,2.923,2.69,4.746,1.869l4.07-10.157,6.356-6.5C164.321,349.375,158.714,343.865,155.927,345.754Z" fill="#355059"/>
          </g>
        </g>
        <g id="Grupo_23074" data-name="Grupo 23074">
          <g id="Grupo_23073" data-name="Grupo 23073">
            <path id="Caminho_15446" data-name="Caminho 15446" d="M171.978,330.709v3.6a1.6,1.6,0,0,1-.009.17,2.747,2.747,0,0,1-1.55,2,8.442,8.442,0,0,1-6.836.338,5.674,5.674,0,0,1-.7-.338,2.646,2.646,0,0,1-1.559-2.174v-3.6Z"/>
            <path id="Caminho_15447" data-name="Caminho 15447" d="M173.045,331.895l-1.067,1.357c-1.663,2.214-6.177,3.157-8.946,1.956a5.351,5.351,0,0,1-1.7-1.163A9.056,9.056,0,0,1,159.7,332.5Z" fill="#1e3a47"/>
            <path id="Caminho_15448" data-name="Caminho 15448" d="M159.4,331.65c.182,1.954,3.5,3.242,7.419,2.878s6.941-2.244,6.759-4.2-3.5-3.242-7.418-2.878S159.215,329.7,159.4,331.65Z" fill="#355059"/>
            <path id="Caminho_15449" data-name="Caminho 15449" d="M170.513,335.687a3.943,3.943,0,0,0,1.456-1.212c1.076,1.258.983,2.474-.615,3.4a6.818,6.818,0,0,1-7.771-1.054A13.1,13.1,0,0,0,170.513,335.687Z" fill="#333"/>
            <path id="Caminho_15450" data-name="Caminho 15450" d="M168.879,338.47c-.158.013-.317.023-.477.024l-1.128-1.631c.154-.024.309-.05.464-.079Z" fill="#fff" opacity="0.2"/>
            <path id="Caminho_15451" data-name="Caminho 15451" d="M166.918,336.915l1.1,1.571a6.925,6.925,0,0,1-1.265-.181l-.975-1.279C166.141,337,166.526,336.967,166.918,336.915Z" fill="#fff" opacity="0.2"/>
          </g>
        </g>
        <path id="Caminho_15452" data-name="Caminho 15452" d="M171.77,333.532a5.744,5.744,0,0,1-2.521,1.455.322.322,0,0,0-.2.228c-.028.109.021.185.111.164a4.221,4.221,0,0,0,.466-.136.1.1,0,0,1,.132.043c.023.05.046.1.071.147s.079.059.143.029a6.6,6.6,0,0,0,1.075-.62.4.4,0,0,0,.144-.2c.024-.076.048-.152.07-.227a.413.413,0,0,1,.132-.2q.235-.189.466-.4a.32.32,0,0,0,.111-.293C171.942,333.452,171.853,333.455,171.77,333.532Z" fill="#fbb03b"/>
        <path id="Caminho_15453" data-name="Caminho 15453" d="M166.538,355.541l-2.231,1.288-.139-.817,2.231-1.288Z" fill="#fff"/>
        <path id="Caminho_15454" data-name="Caminho 15454" d="M153.331,352.464a.266.266,0,0,1-.168-.06.263.263,0,0,1-.1-.2v-2.218a.265.265,0,0,1,.529,0v1.9l1.959-.388a.264.264,0,1,1,.1.518l-2.275.452A.3.3,0,0,1,153.331,352.464Z" fill="#fbb03b"/>
        <path id="Caminho_15455" data-name="Caminho 15455" d="M152.429,353.573a.264.264,0,0,1-.264-.265v-2.217a.265.265,0,0,1,.529,0v1.9l2.162-.4a.26.26,0,0,1,.308.213.266.266,0,0,1-.213.307l-2.474.453A.26.26,0,0,1,152.429,353.573Z" fill="#fbb03b"/>
      </g>
    </g>
  </g>
</svg>
