<svg xmlns="http://www.w3.org/2000/svg" width="36.328" height="36.905" viewBox="0 0 36.328 36.905">
  <path id="Viagem_1" data-name="Viagem 1" d="M28.56,20.866a8.209,8.209,0,0,0-3.776-4.926l-3.464-2.02-.788-8.981a1.641,1.641,0,0,0-.8-1.281L14.8.834a1.669,1.669,0,0,0-2.5,1.379l-.246,6.4L9.186,6.975,4.49.654a1.642,1.642,0,0,0-2.923.673L.139,8.9a4.926,4.926,0,0,0,2.282,5.4L25.506,27.614a1.642,1.642,0,0,0,2.233-.558,8.06,8.06,0,0,0,.821-6.19Zm-3.087,2.906L4.063,11.457A1.642,1.642,0,0,1,3.34,9.6L4.1,5.6,6.821,9.208a1.642,1.642,0,0,0,.493.443l5.5,3.185a1.642,1.642,0,0,0,2.463-1.363l.263-6.4L17.329,6.1l.788,8.981a1.643,1.643,0,0,0,.821,1.281l4.2,2.479a4.777,4.777,0,0,1,2.233,2.923A4.5,4.5,0,0,1,25.473,23.772Z" transform="translate(0 26.927) rotate(-69)" fill="#ff6b00"/>
</svg>
