<svg xmlns="http://www.w3.org/2000/svg" width="115.309" height="62.628" viewBox="0 0 115.309 62.628">
  <g id="Grupo_3589" data-name="Grupo 3589" transform="translate(-84.5 4185.868)">
    <path id="Caminho_14665" data-name="Caminho 14665" d="M28.5-200.04h1.114v-11.883a6.609,6.609,0,0,1,6.573-6.573,5.35,5.35,0,0,1,5.31,5.273v13.183h1.114v-11.883a6.553,6.553,0,0,1,6.536-6.573,5.35,5.35,0,0,1,5.31,5.273v13.183h1.114v-13.369a6.244,6.244,0,0,0-6.239-6.2,7.579,7.579,0,0,0-6.981,4.568,6.183,6.183,0,0,0-5.979-4.568,7.562,7.562,0,0,0-6.759,4.2v-3.825H28.5Zm41.962.408a10,10,0,0,0,9.989-10.026,9.985,9.985,0,0,0-9.989-9.952,9.953,9.953,0,0,0-9.952,9.952A9.969,9.969,0,0,0,70.462-199.632Zm0-1.151a8.867,8.867,0,0,1-8.838-8.875,8.859,8.859,0,0,1,8.838-8.838,8.859,8.859,0,0,1,8.838,8.838A8.867,8.867,0,0,1,70.462-200.783Zm25.586,1.151a9.93,9.93,0,0,0,9.878-10.026,9.913,9.913,0,0,0-9.878-9.952,9.714,9.714,0,0,0-8.912,5.9V-228.3H86.022v28.26h1.114v-5.533A9.69,9.69,0,0,0,96.048-199.632Zm-.111-1.151a8.836,8.836,0,0,1-8.8-8.875,8.828,8.828,0,0,1,8.8-8.838,8.835,8.835,0,0,1,8.838,8.838A8.843,8.843,0,0,1,95.937-200.783Z" transform="translate(56 -3957.126)" fill="#fff"/>
    <path id="Caminho_14666" data-name="Caminho 14666" d="M2.1-189.526H3.4l3.045-7.167H21.039l3.008,7.167h1.337L13.872-216.3h-.26Zm4.79-8.207,6.833-16.154,6.87,16.154Zm22.467,8.207h1.188v-26.143H29.357Zm8.875,0h1.188v-11.7H47.7l8.17,11.7h1.485l-8.318-11.846a7.092,7.092,0,0,0,6.016-7.056,7.227,7.227,0,0,0-7.241-7.241H38.232Zm1.188-12.737v-12.329H47.7a6.173,6.173,0,0,1,6.164,6.164,6.173,6.173,0,0,1-6.164,6.164Z" transform="translate(140.528 -3934.714)" fill="#ff6b00" stroke="#ff6b00" stroke-width="2"/>
    <g id="Grupo_2150" data-name="Grupo 2150" transform="translate(165.578 -4185.868)">
      <path id="Caminho_11556" data-name="Caminho 11556" d="M31.628,87.9s-.588,1.618,0,2.109c0,0,.294.441,1.962,0l3.237,5.248a1.864,1.864,0,0,0,1.128-1.226l-.245-6.572,6.523-6.376,8.092,12.555s.364.469,1.082-.041a1.426,1.426,0,0,0,.458-1.746L50.218,74.992l6.023-6.023s2.376-3.15.995-4.7c0,0-2.1-1.271-5.25,1.658l-5.415,5.3L29,67.643a1.269,1.269,0,0,0-1.271,1.437l12.82,8.272L34.127,83.74l-6.675-.072s-1.05.5-.995,1.1Z" transform="translate(-26.455 -63.998)" fill="#fff"/>
    </g>
  </g>
</svg>
