<svg xmlns="http://www.w3.org/2000/svg" width="25.345" height="22.811" viewBox="0 0 25.345 22.811">
  <path id="viagens_2" data-name="viagens 2" d="M21.543,3.8h-3.8V2.535A2.535,2.535,0,0,0,15.207,0H10.138A2.535,2.535,0,0,0,7.6,2.535V3.8H3.8A3.8,3.8,0,0,0,0,7.6V19.009a3.8,3.8,0,0,0,3.8,3.8H21.543a3.8,3.8,0,0,0,3.8-3.8V7.6a3.8,3.8,0,0,0-3.8-3.8ZM10.138,2.535h5.069V3.8H10.138ZM22.811,19.009a1.267,1.267,0,0,1-1.267,1.267H3.8a1.267,1.267,0,0,1-1.267-1.267V11.9l5.931,2.04a1.509,1.509,0,0,0,.406,0h7.6a1.507,1.507,0,0,0,.406-.063L22.811,11.9Zm0-9.783-6.539,2.18h-7.2L2.535,9.226V7.6A1.267,1.267,0,0,1,3.8,6.336H21.543A1.267,1.267,0,0,1,22.811,7.6Z" fill="#ef6400"/>
</svg>
