<svg xmlns="http://www.w3.org/2000/svg" width="42.23" height="42.23" viewBox="0 0 42.23 42.23">
  <g id="Grupo_3612" data-name="Grupo 3612" transform="translate(0 21.101) rotate(-45)">
    <path id="Caminho_11556" data-name="Caminho 11556" d="M4.946,22.848s-.563,1.547,0,2.016c0,0,.281.422,1.876,0l3.095,5.017a1.782,1.782,0,0,0,1.079-1.172l-.235-6.283L17,16.33l7.737,12s.348.449,1.035-.039a1.364,1.364,0,0,0,.438-1.67L22.719,10.512l5.758-5.759s2.272-3.011.951-4.491c0,0-2.008-1.215-5.019,1.585L19.232,6.919,2.432,3.485A1.213,1.213,0,0,0,1.217,4.858l12.257,7.909L7.335,18.875.953,18.806s-1,.475-.951,1.056Z" transform="translate(0 0)" fill="#ff6b00"/>
  </g>
</svg>
