<svg xmlns="http://www.w3.org/2000/svg" width="20.337" height="20.337" viewBox="0 0 20.337 20.337">
  <g id="Grupo_3606" data-name="Grupo 3606" transform="translate(10.175) rotate(45)">
    <path id="Caminho_11556" data-name="Caminho 11556" d="M28.837,75s-.271.745,0,.971c0,0,.136.2.9,0l1.49,2.416a.858.858,0,0,0,.519-.565L31.637,74.8l3-2.936,3.726,5.781s.167.216.5-.019a.657.657,0,0,0,.211-.8L37.4,69.06l2.773-2.773s1.094-1.45.458-2.163c0,0-.967-.585-2.417.763L35.717,67.33l-8.09-1.654a.584.584,0,0,0-.585.661l5.9,3.809-2.956,2.941-3.073-.033s-.483.229-.458.509Z" transform="translate(-26.455 -63.998)" fill="#fff"/>
  </g>
</svg>
