<svg xmlns="http://www.w3.org/2000/svg" width="11.956" height="15.302" viewBox="0 0 11.956 15.302">
  <path id="Icon_awesome-exchange-alt" data-name="Icon awesome-exchange-alt" d="M0,3.348V2.87a.717.717,0,0,1,.717-.717H11.476V.718A.718.718,0,0,1,12.7.211L15.092,2.6a.717.717,0,0,1,0,1.014L12.7,6.007A.718.718,0,0,1,11.476,5.5V4.065H.717A.717.717,0,0,1,0,3.348ZM14.585,7.891H3.825V6.456A.718.718,0,0,0,2.6,5.949L.21,8.34a.717.717,0,0,0,0,1.014L2.6,11.745a.718.718,0,0,0,1.224-.507V9.8H14.585a.717.717,0,0,0,.717-.717V8.608A.717.717,0,0,0,14.585,7.891Z" transform="translate(11.956) rotate(90)" fill="#fff"/>
</svg>
