<svg xmlns="http://www.w3.org/2000/svg" width="243.763" height="196.362" viewBox="0 0 243.763 196.362">
  <g id="Grupo_23159" data-name="Grupo 23159" transform="translate(-195.942 -39.63)">
    <ellipse id="Elipse_470" data-name="Elipse 470" cx="121.881" cy="70.368" rx="121.881" ry="70.368" transform="translate(195.942 95.255)" fill="#9cdcff" opacity="0.75"/>
    <path id="Caminho_15456" data-name="Caminho 15456" d="M379.852,107.132c-1.831.21-11.342.775-11.342.775l-42.62,14.371-37.615-3.087-51.5-4.1-6.834,3.8,59.88,22.543,6.4,2.47L279.4,157.924l-20.852,16.343-25.361-3.381-5.355,3.381,22.261,7.186-2.522,2.153a.691.691,0,0,0,.709,1.166l4.35-1.77,12.962,13.1,5.354-3.1-5.635-14.934s12.539-4.79,18.739-8.031S314.2,153.415,314.2,153.415l32.959,28.976a2.058,2.058,0,0,0-1.327.18l-4.985,2.879a.571.571,0,0,0,0,1.083l.7.4-3.851.215-18.287-10.558a16.141,16.141,0,0,0-14.6,0c-2.608,1.506-3.518,3.615-2.753,5.548l-11.305,6.528a1.259,1.259,0,0,0,0,2.385l3.047,1.76a4.566,4.566,0,0,0,4.131,0l10.187-5.882,28.2,16.279a16.141,16.141,0,0,0,14.6,0c4.032-2.328,4.032-6.1,0-8.43l-8.183-4.724,3.141-.626,9.145,5.28a2.073,2.073,0,0,0,1.876,0l2.586-1.493,1.361,1.2,6.763-3.8-23.811-54.525,27.262-15.71s5.283-1.972,7.468-5.565a27.221,27.221,0,0,0,2.888-6.129A1.283,1.283,0,0,0,379.852,107.132Z" transform="translate(3.051 6.458)" fill="#006fa6" opacity="0.3" style="mix-blend-mode: multiply;isolation: isolate"/>
    <g id="Grupo_23115" data-name="Grupo 23115" transform="translate(220.861 39.63)">
      <g id="Grupo_23081" data-name="Grupo 23081" transform="translate(157.039 27.709)">
        <g id="Grupo_23079" data-name="Grupo 23079" transform="translate(0.804 0.804)">
          <g id="Grupo_23077" data-name="Grupo 23077">
            <path id="Caminho_15457" data-name="Caminho 15457" d="M365.207,66.518a2.863,2.863,0,0,1-1.106,2.345c-.679.471-1.285.185-1.354-.639a2.867,2.867,0,0,1,1.107-2.345C364.534,65.408,365.139,65.694,365.207,66.518Z" transform="translate(-362.741 -65.652)" fill="#355059"/>
          </g>
          <g id="Grupo_23078" data-name="Grupo 23078">
            <path id="Caminho_15458" data-name="Caminho 15458" d="M365.207,66.518a2.863,2.863,0,0,1-1.106,2.345c-.679.471-1.285.185-1.354-.639a2.867,2.867,0,0,1,1.107-2.345C364.534,65.408,365.139,65.694,365.207,66.518Z" transform="translate(-362.741 -65.652)" fill="#355059"/>
          </g>
        </g>
        <g id="Grupo_23080" data-name="Grupo 23080">
          <path id="Caminho_15459" data-name="Caminho 15459" d="M363.672,69.957a1.463,1.463,0,0,1-.749-.131,1.7,1.7,0,0,1-.906-1.465,3.65,3.65,0,0,1,1.45-3.072,1.581,1.581,0,0,1,2.612,1.233,3.65,3.65,0,0,1-1.449,3.071A1.976,1.976,0,0,1,363.672,69.957Zm.791-3.4a.855.855,0,0,0-.081.049,2.076,2.076,0,0,0-.764,1.618.8.8,0,0,0,.013.1.622.622,0,0,0,.082-.05,2.075,2.075,0,0,0,.763-1.618A.628.628,0,0,0,364.463,66.559Z" transform="translate(-362.008 -64.919)" fill="#49626a"/>
        </g>
      </g>
      <g id="Grupo_23082" data-name="Grupo 23082" transform="translate(158.477 29.7)">
        <path id="Caminho_15460" data-name="Caminho 15460" d="M366.746,69.149a.533.533,0,0,1-.273-.049l-2.845-1.343a.535.535,0,1,1,.457-.969l2.846,1.342a.536.536,0,0,1-.184,1.019Z" transform="translate(-363.32 -66.736)" fill="gray"/>
      </g>
      <g id="Grupo_23083" data-name="Grupo 23083" transform="translate(90.6 31.691)">
        <path id="Caminho_15461" data-name="Caminho 15461" d="M301.372,70.371l4.66-1.7c2.752-1.008,6.616,4.829,5.389,7.048l-3.491,4.456Z" transform="translate(-301.372 -68.553)" fill="#8fdeff"/>
      </g>
      <g id="Grupo_23084" data-name="Grupo 23084" transform="translate(62.557 27.704)">
        <path id="Caminho_15462" data-name="Caminho 15462" d="M275.778,66.732l4.66-1.7c2.751-1.007,6.615,4.829,5.389,7.048l-3.491,4.456Z" transform="translate(-275.778 -64.914)" fill="#8fdeff"/>
      </g>
      <g id="Grupo_23085" data-name="Grupo 23085" transform="translate(0 23.106)">
        <path id="Caminho_15463" data-name="Caminho 15463" d="M339.151,72.864,314.015,88.612l-.306.193-8.7,5.451L293.245,90.4l-.27-.085-27.085-8.887-.265-.085-27.079-8.883-.253-.081-15.642-5.136-.32-.1-3.515-1.155a.2.2,0,0,1-.049-.345l6.772-4.711a1.2,1.2,0,0,1,.8-.2Z" transform="translate(-218.685 -60.718)" fill="#e6e6e6"/>
        <path id="Caminho_15464" data-name="Caminho 15464" d="M220.634,65.292l1.837.6.328.1,15.633,5.132.262.084L265.767,80.1l.272.087,27.072,8.884.283.089,11.286,3.7,14.743-9.238-95.531-20.6Z" transform="translate(-218.498 -60.497)" fill="#fff"/>
        <path id="Caminho_15465" data-name="Caminho 15465" d="M225.565,61.7a1.385,1.385,0,0,0-.2.122c42,5.371,85.543,10.639,100.11,17.859l9.851-6.172Z" transform="translate(-218.046 -60.624)" fill="#29abe2"/>
      </g>
      <g id="Grupo_23086" data-name="Grupo 23086" transform="translate(3.647 26.882)">
        <path id="Caminho_15466" data-name="Caminho 15466" d="M226.362,64.172a1.316,1.316,0,0,0-.894.23l-3.455,2.405.32.1,3.287-2.288a1.077,1.077,0,0,1,.695-.187l15.7,4.335-3.533,2.508a1.246,1.246,0,0,0-.505.768l.253.081a.986.986,0,0,1,.405-.626l3.71-2.635,28.328,7.818-4.847,3.433a1.248,1.248,0,0,0-.517.893l.265.085a.942.942,0,0,1,.41-.755l5.025-3.566L299.331,84.6l-6.152,4.359a1.239,1.239,0,0,0-.522,1.027l.27.085a.97.97,0,0,1,.411-.889l6.329-4.492,13.725,3.79.306-.193Z" transform="translate(-222.013 -64.164)" fill="#333"/>
      </g>
      <path id="Caminho_15467" data-name="Caminho 15467" d="M226.213,119.359l-1.226.852L220.975,123l2.94.777.341.1,24.61,6.53,6.569-2.969.419-.191,3.2-1.448.041-.25.169-1.022Z" transform="translate(-218.465 -32)" fill="#8fdeff"/>
      <path id="Caminho_15468" data-name="Caminho 15468" d="M259.521,120.262l-31.7-1.491a2.889,2.889,0,0,0-1.642.352l-.423.293,33.052,5.161Z" transform="translate(-218.008 -32.057)" fill="#29abe2"/>
      <g id="Grupo_23087" data-name="Grupo 23087" transform="translate(5.449 89.809)">
        <path id="Caminho_15469" data-name="Caminho 15469" d="M227.672,121.6a2.926,2.926,0,0,0-1.721.375l-2.292,1.588.342.1,2.1-1.459a2.654,2.654,0,0,1,1.542-.332l27.538,5.351.42-.191Z" transform="translate(-223.658 -121.595)" fill="#4d4d4d"/>
      </g>
      <path id="Caminho_15470" data-name="Caminho 15470" d="M399.589,42.118c.294,4.511-2.623,13.009-8.03,17.349l-8.476,5.88L362.206,79.829l-44.955,31.185L291.7,128.732c-11.338,7.719-28.187,10-46.037,12.577a1.393,1.393,0,0,1-1.111-2.435c11.983-10.336,23.448-19.961,32.518-26.336l92.116-63.893,1.851-1.282c.657-.431,1.3-.86,1.925-1.278q.36-.232.7-.461a73.655,73.655,0,0,1,6.622-4c3.595-1.82,6.84-2.606,10.14-1.455a16.212,16.212,0,0,1,7.672.159A2.006,2.006,0,0,1,399.589,42.118Z" transform="translate(-216.256 -39.63)" fill="#e6e6e6"/>
      <path id="Caminho_15471" data-name="Caminho 15471" d="M287.338,114.484,381.3,49.313c.557-.365,1.125-.743,1.681-1.114l.229-.152c.23-.149.47-.306.7-.462a71.683,71.683,0,0,1,6.514-3.937,15.6,15.6,0,0,1,5.713-1.844,8.616,8.616,0,0,1,2.243.107.933.933,0,0,0-.644-.64,15.045,15.045,0,0,0-5.126-.457,15.892,15.892,0,0,0-2.048.308l-.295.065-.286-.1a8.523,8.523,0,0,0-3.586-.448,15.566,15.566,0,0,0-5.713,1.845,71.49,71.49,0,0,0-6.515,3.936c-.233.157-.473.314-.7.462l-.229.153c-.556.37-1.123.749-1.68,1.114L277.6,113.321c-9.411,6.615-21.676,16.993-32.435,26.274a.292.292,0,0,0-.089.365.3.3,0,0,0,.316.2l1.234-.178c3.765-.542,7.485-1.077,11.111-1.661C267.768,129.7,278.742,120.526,287.338,114.484Z" transform="translate(-216.162 -39.536)" fill="#fff"/>
      <path id="Caminho_15472" data-name="Caminho 15472" d="M317.111,104.781,291.563,122.5c-11.338,7.719-28.187,10-46.037,12.577,0,0,22.331-6.273,39.506-19.517A50.106,50.106,0,0,1,317.111,104.781Z" transform="translate(-216.116 -33.398)" fill="#29abe2"/>
      <path id="Caminho_15473" data-name="Caminho 15473" d="M372.128,43c-2.155-1.611-3.8-.72-3.8-.72s-3.226,1.959-4.98,3.11a7.457,7.457,0,0,1,4.726,1.891c2.986,2.821,3.3,9.551-3.357,20.16,4.439-7.9,4.593-12.969,3.531-16.111a7.034,7.034,0,0,0-7.055-4.513c-2.681,1.787.2-.152-2.324,1.594a5.612,5.612,0,0,1,6.336,3.946c.877,2.6,1.3,10.421-13.319,27.238l20.876-14.482a35.848,35.848,0,0,0,2.584-7.008C377.431,49.588,374.436,44.73,372.128,43Z" transform="translate(-205.938 -39.399)" fill="#29abe2"/>
      <path id="Caminho_15474" data-name="Caminho 15474" d="M390.287,54.95l-8.476,5.88L360.934,75.311,315.979,106.5l-25.548,17.717c-10.087,6.867-29.284,13.538-45.982,16.573a1.349,1.349,0,0,0,1.18.394c17.85-2.574,34.7-4.858,46.038-12.577l25.547-17.718L362.169,79.7,383.046,65.22l8.476-5.879c5.407-4.34,8.324-12.838,8.03-17.349a1.979,1.979,0,0,0-.394-1.029C397.411,46.275,393.937,52.021,390.287,54.95Z" transform="translate(-216.219 -39.502)" fill="#e6e6e6" style="mix-blend-mode: multiply;isolation: isolate"/>
      <g id="Grupo_23088" data-name="Grupo 23088" transform="translate(24.861 73.906)">
        <path id="Caminho_15475" data-name="Caminho 15475" d="M261.4,122.31l-8.413,5.423-.225.148-3.8,2.449-7.587-19.391,1.921-1.337.224-.153,3.119-2.172a1.1,1.1,0,0,1,1.415.14l13.257,13.824C261.822,121.661,261.814,122.077,261.4,122.31Z" transform="translate(-241.374 -107.081)" fill="#29abe2"/>
      </g>
      <g id="Grupo_23089" data-name="Grupo 23089" transform="translate(33.805 91.884)">
        <path id="Caminho_15476" data-name="Caminho 15476" d="M271.494,141.613a1.108,1.108,0,0,0,.363-1.395c-1.618-3.306-7.427-15.132-7.924-16.015-.58-1.027-1.354-.645-1.354-.645l-4.7,2.548,13,15.93Z" transform="translate(-248.738 -123.489)" fill="#29abe2"/>
        <path id="Caminho_15477" data-name="Caminho 15477" d="M258.682,125.877l-4.357,2.364-.237.127-4.552,2.468.037.443L264.9,143.637l.219.175,1.682,1.355,4.876-3.359Z" transform="translate(-249.537 -123.26)" fill="#8fdeff"/>
      </g>
      <g id="Grupo_23090" data-name="Grupo 23090" transform="translate(38.356 96.864)">
        <path id="Caminho_15478" data-name="Caminho 15478" d="M267.015,140.729c-4.129-3.9-11.722-11.137-13.087-12.695l-.237.127c1.67,1.921,12.447,12.1,13.106,12.72a1,1,0,0,1,.1.663.9.9,0,0,1-.438.537l-1.958,1.35.219.175,1.88-1.3a1.134,1.134,0,0,0,.561-.7A1.261,1.261,0,0,0,267.015,140.729Z" transform="translate(-253.691 -128.034)" fill="#4d4d4d"/>
      </g>
      <g id="Grupo_23093" data-name="Grupo 23093" transform="translate(172.949 0.2)">
        <g id="Grupo_23091" data-name="Grupo 23091">
          <path id="Caminho_15479" data-name="Caminho 15479" d="M376.529,39.812c2.1.8,3.414,3,1.79,5.9l.323.4c2.5-2.783,1.649-4.964-.886-5.962Z" transform="translate(-376.529 -39.812)" fill="#355059"/>
        </g>
        <g id="Grupo_23092" data-name="Grupo 23092">
          <path id="Caminho_15480" data-name="Caminho 15480" d="M376.529,39.812c2.1.8,3.414,3,1.79,5.9l.323.4c2.5-2.783,1.649-4.964-.886-5.962Z" transform="translate(-376.529 -39.812)" fill="#355059"/>
        </g>
      </g>
      <g id="Grupo_23094" data-name="Grupo 23094" transform="translate(26.781 76.274)">
        <path id="Caminho_15481" data-name="Caminho 15481" d="M252.818,127.526l-.224.148L243.127,109.4l.224-.153Z" transform="translate(-243.127 -109.242)" fill="#333"/>
      </g>
      <g id="Grupo_23105" data-name="Grupo 23105" transform="translate(73.174 13.133)">
        <g id="Grupo_23095" data-name="Grupo 23095" transform="translate(33.049 25.772)">
          <path id="Caminho_15482" data-name="Caminho 15482" d="M316.125,94.663c-.22.152-.419.059-.44-.208l-.053-.629a.937.937,0,0,1,.361-.764c.22-.152.419-.059.44.208l.053.629A.939.939,0,0,1,316.125,94.663Z" transform="translate(-315.63 -73.428)" fill="#333"/>
          <path id="Caminho_15483" data-name="Caminho 15483" d="M318.115,93.29c-.22.152-.419.059-.44-.208l-.053-.629a.937.937,0,0,1,.36-.764c.22-.153.419-.059.44.208l.053.629A.94.94,0,0,1,318.115,93.29Z" transform="translate(-315.44 -73.56)" fill="#333"/>
          <path id="Caminho_15484" data-name="Caminho 15484" d="M320.106,91.916c-.22.153-.419.059-.442-.207l-.052-.63a.934.934,0,0,1,.359-.763c.221-.153.42-.059.442.207l.051.629A.933.933,0,0,1,320.106,91.916Z" transform="translate(-315.249 -73.691)" fill="#333"/>
          <path id="Caminho_15485" data-name="Caminho 15485" d="M322.1,90.543c-.22.153-.419.059-.44-.208l-.053-.629a.938.938,0,0,1,.36-.764c.22-.152.419-.059.44.208l.053.629A.937.937,0,0,1,322.1,90.543Z" transform="translate(-315.059 -73.823)" fill="#333"/>
          <path id="Caminho_15486" data-name="Caminho 15486" d="M324.086,89.17c-.22.152-.419.059-.44-.208l-.053-.629a.937.937,0,0,1,.36-.764c.22-.152.419-.059.442.208l.052.629A.936.936,0,0,1,324.086,89.17Z" transform="translate(-314.868 -73.954)" fill="#333"/>
          <path id="Caminho_15487" data-name="Caminho 15487" d="M326.077,87.8c-.22.153-.419.06-.44-.207l-.053-.629a.937.937,0,0,1,.36-.764c.22-.153.419-.059.44.208l.053.629A.935.935,0,0,1,326.077,87.8Z" transform="translate(-314.678 -74.085)" fill="#333"/>
          <path id="Caminho_15488" data-name="Caminho 15488" d="M328.067,86.423c-.22.153-.419.059-.44-.208l-.053-.629a.94.94,0,0,1,.361-.764c.22-.152.419-.059.44.208l.053.63A.936.936,0,0,1,328.067,86.423Z" transform="translate(-314.487 -74.217)" fill="#333"/>
          <path id="Caminho_15489" data-name="Caminho 15489" d="M330.058,85.05c-.221.152-.42.059-.442-.208l-.052-.629a.934.934,0,0,1,.359-.764c.22-.152.419-.059.442.208l.051.629A.936.936,0,0,1,330.058,85.05Z" transform="translate(-314.297 -74.348)" fill="#333"/>
          <path id="Caminho_15490" data-name="Caminho 15490" d="M332.048,83.677c-.22.152-.419.059-.44-.208l-.053-.629a.937.937,0,0,1,.36-.764c.22-.152.419-.059.44.208l.053.629A.939.939,0,0,1,332.048,83.677Z" transform="translate(-314.106 -74.48)" fill="#333"/>
          <path id="Caminho_15491" data-name="Caminho 15491" d="M334.038,82.3c-.22.152-.419.059-.44-.208l-.053-.629a.937.937,0,0,1,.36-.764c.22-.153.419-.059.44.208l.053.629A.94.94,0,0,1,334.038,82.3Z" transform="translate(-313.916 -74.611)" fill="#333"/>
          <path id="Caminho_15492" data-name="Caminho 15492" d="M336.029,80.93c-.22.153-.419.059-.442-.207l-.051-.63a.931.931,0,0,1,.359-.763c.22-.153.419-.059.442.207l.052.629A.933.933,0,0,1,336.029,80.93Z" transform="translate(-313.725 -74.743)" fill="#333"/>
          <path id="Caminho_15493" data-name="Caminho 15493" d="M338.019,79.557c-.22.153-.419.059-.44-.208l-.053-.629a.938.938,0,0,1,.361-.764c.22-.152.419-.059.44.208l.053.629A.937.937,0,0,1,338.019,79.557Z" transform="translate(-313.535 -74.874)" fill="#333"/>
          <path id="Caminho_15494" data-name="Caminho 15494" d="M340.009,78.184c-.22.152-.419.059-.44-.208l-.053-.629a.939.939,0,0,1,.361-.764c.22-.152.419-.059.44.208l.053.629A.938.938,0,0,1,340.009,78.184Z" transform="translate(-313.345 -75.005)" fill="#333"/>
          <path id="Caminho_15495" data-name="Caminho 15495" d="M342,76.811c-.22.152-.419.059-.442-.208l-.051-.629a.933.933,0,0,1,.359-.764c.22-.153.419-.059.442.208l.051.629A.934.934,0,0,1,342,76.811Z" transform="translate(-313.154 -75.137)" fill="#333"/>
        </g>
        <g id="Grupo_23096" data-name="Grupo 23096" transform="translate(70.058 3.5)">
          <path id="Caminho_15496" data-name="Caminho 15496" d="M349.9,71.23c-.22.152-.419.059-.442-.208l-.052-.629a.934.934,0,0,1,.359-.764c.22-.152.42-.059.442.208l.052.629A.934.934,0,0,1,349.9,71.23Z" transform="translate(-349.407 -53.399)" fill="#333"/>
          <path id="Caminho_15497" data-name="Caminho 15497" d="M351.821,69.889c-.22.153-.419.059-.44-.207l-.053-.63a.936.936,0,0,1,.36-.763c.22-.153.419-.059.44.207l.053.63A.936.936,0,0,1,351.821,69.889Z" transform="translate(-349.223 -53.527)" fill="#333"/>
          <path id="Caminho_15498" data-name="Caminho 15498" d="M353.741,68.549c-.22.152-.419.059-.44-.208l-.053-.629a.937.937,0,0,1,.361-.764c.22-.153.419-.059.44.208l.053.629A.938.938,0,0,1,353.741,68.549Z" transform="translate(-349.04 -53.655)" fill="#333"/>
          <path id="Caminho_15499" data-name="Caminho 15499" d="M355.661,67.208c-.22.153-.419.059-.442-.208l-.051-.629a.937.937,0,0,1,.359-.764c.221-.152.42-.059.442.208l.052.629A.933.933,0,0,1,355.661,67.208Z" transform="translate(-348.856 -53.783)" fill="#333"/>
          <path id="Caminho_15500" data-name="Caminho 15500" d="M357.58,65.868c-.22.152-.419.059-.44-.208l-.053-.629a.937.937,0,0,1,.36-.764c.22-.153.419-.059.44.208l.053.629A.938.938,0,0,1,357.58,65.868Z" transform="translate(-348.672 -53.912)" fill="#333"/>
          <path id="Caminho_15501" data-name="Caminho 15501" d="M359.5,64.527c-.22.152-.419.059-.44-.208l-.053-.629a.939.939,0,0,1,.361-.764c.22-.152.419-.059.44.208l.053.629A.937.937,0,0,1,359.5,64.527Z" transform="translate(-348.488 -54.04)" fill="#333"/>
          <path id="Caminho_15502" data-name="Caminho 15502" d="M361.42,63.186c-.22.153-.419.059-.442-.207l-.051-.63a.936.936,0,0,1,.361-.763c.22-.153.419-.06.44.207l.053.629A.937.937,0,0,1,361.42,63.186Z" transform="translate(-348.305 -54.168)" fill="#333"/>
          <path id="Caminho_15503" data-name="Caminho 15503" d="M363.34,61.846c-.221.152-.42.059-.442-.208l-.052-.629a.933.933,0,0,1,.359-.764c.22-.152.419-.059.442.208l.051.629A.938.938,0,0,1,363.34,61.846Z" transform="translate(-348.121 -54.297)" fill="#333"/>
          <path id="Caminho_15504" data-name="Caminho 15504" d="M365.259,60.505c-.22.153-.419.059-.44-.208l-.053-.629a.938.938,0,0,1,.361-.764c.22-.152.419-.059.44.208l.053.629A.937.937,0,0,1,365.259,60.505Z" transform="translate(-347.937 -54.425)" fill="#333"/>
          <path id="Caminho_15505" data-name="Caminho 15505" d="M367.179,59.165c-.22.152-.419.059-.44-.208l-.053-.629a.937.937,0,0,1,.36-.764c.22-.153.419-.059.44.208l.053.629A.94.94,0,0,1,367.179,59.165Z" transform="translate(-347.754 -54.553)" fill="#333"/>
          <path id="Caminho_15506" data-name="Caminho 15506" d="M369.1,57.824c-.22.152-.42.059-.442-.208l-.052-.629a.935.935,0,0,1,.359-.764c.22-.152.419-.059.442.208l.051.629A.934.934,0,0,1,369.1,57.824Z" transform="translate(-347.57 -54.681)" fill="#333"/>
          <path id="Caminho_15507" data-name="Caminho 15507" d="M371.018,56.483c-.22.153-.419.059-.44-.207l-.053-.63a.936.936,0,0,1,.36-.763c.22-.153.419-.059.44.207l.053.63A.936.936,0,0,1,371.018,56.483Z" transform="translate(-347.386 -54.81)" fill="#333"/>
        </g>
        <g id="Grupo_23097" data-name="Grupo 23097" transform="translate(0 51.757)">
          <path id="Caminho_15508" data-name="Caminho 15508" d="M285.963,115.926c-.22.153-.419.059-.442-.207l-.051-.63a.932.932,0,0,1,.359-.763c.22-.153.419-.059.442.208l.051.629A.931.931,0,0,1,285.963,115.926Z" transform="translate(-285.468 -97.378)" fill="#333"/>
          <path id="Caminho_15509" data-name="Caminho 15509" d="M287.972,114.526c-.22.153-.419.059-.44-.207l-.053-.63a.936.936,0,0,1,.361-.763c.22-.153.419-.059.44.207l.053.63A.936.936,0,0,1,287.972,114.526Z" transform="translate(-285.276 -97.512)" fill="#333"/>
          <path id="Caminho_15510" data-name="Caminho 15510" d="M289.982,113.126c-.22.153-.419.059-.442-.207l-.052-.63a.931.931,0,0,1,.359-.763c.22-.153.42-.059.442.207l.052.629A.933.933,0,0,1,289.982,113.126Z" transform="translate(-285.083 -97.646)" fill="#333"/>
          <path id="Caminho_15511" data-name="Caminho 15511" d="M291.991,111.726c-.22.153-.419.059-.44-.207l-.053-.63a.94.94,0,0,1,.36-.764c.22-.152.419-.059.44.208l.053.629A.937.937,0,0,1,291.991,111.726Z" transform="translate(-284.891 -97.78)" fill="#333"/>
          <path id="Caminho_15512" data-name="Caminho 15512" d="M294,110.326c-.22.153-.419.059-.442-.208l-.051-.629a.934.934,0,0,1,.359-.764c.22-.152.42-.059.442.208l.051.629A.933.933,0,0,1,294,110.326Z" transform="translate(-284.699 -97.914)" fill="#333"/>
          <path id="Caminho_15513" data-name="Caminho 15513" d="M296.01,108.926c-.22.152-.419.059-.44-.208l-.053-.629a.939.939,0,0,1,.361-.764c.22-.152.419-.059.44.208l.053.629A.937.937,0,0,1,296.01,108.926Z" transform="translate(-284.507 -98.048)" fill="#333"/>
          <path id="Caminho_15514" data-name="Caminho 15514" d="M298.02,107.526c-.22.152-.419.059-.442-.208l-.052-.629a.934.934,0,0,1,.359-.764c.22-.152.42-.059.442.208l.051.629A.933.933,0,0,1,298.02,107.526Z" transform="translate(-284.314 -98.182)" fill="#333"/>
          <path id="Caminho_15515" data-name="Caminho 15515" d="M300.029,106.126c-.22.152-.419.059-.44-.208l-.053-.629a.938.938,0,0,1,.36-.764c.22-.152.419-.059.44.208l.053.629A.937.937,0,0,1,300.029,106.126Z" transform="translate(-284.122 -98.316)" fill="#333"/>
          <path id="Caminho_15516" data-name="Caminho 15516" d="M302.039,104.726c-.22.152-.419.059-.442-.208l-.051-.629a.936.936,0,0,1,.359-.764c.22-.152.42-.059.442.208l.051.629A.934.934,0,0,1,302.039,104.726Z" transform="translate(-283.93 -98.45)" fill="#333"/>
          <path id="Caminho_15517" data-name="Caminho 15517" d="M304.048,103.326c-.22.152-.419.059-.44-.208l-.053-.629a.937.937,0,0,1,.36-.764c.22-.153.419-.059.44.208l.053.629A.939.939,0,0,1,304.048,103.326Z" transform="translate(-283.737 -98.584)" fill="#333"/>
          <path id="Caminho_15518" data-name="Caminho 15518" d="M306.058,101.926c-.22.152-.419.059-.442-.208l-.052-.629a.936.936,0,0,1,.359-.764c.221-.153.42-.059.442.208l.051.629A.934.934,0,0,1,306.058,101.926Z" transform="translate(-283.545 -98.718)" fill="#333"/>
          <path id="Caminho_15519" data-name="Caminho 15519" d="M308.067,100.526c-.22.152-.419.059-.44-.208l-.053-.629a.937.937,0,0,1,.361-.764c.22-.153.419-.059.44.208l.053.629A.938.938,0,0,1,308.067,100.526Z" transform="translate(-283.353 -98.852)" fill="#333"/>
        </g>
        <g id="Grupo_23101" data-name="Grupo 23101" transform="translate(27.352)">
          <g id="Grupo_23098" data-name="Grupo 23098" transform="translate(0 47.228)">
            <path id="Caminho_15520" data-name="Caminho 15520" d="M311.709,101.312a.923.923,0,0,1-.476-.082,1.2,1.2,0,0,1-.6-1.056l-.19-2.278a3.535,3.535,0,0,1,1.362-2.886,1.063,1.063,0,0,1,1.806.852l.188,2.278a3.527,3.527,0,0,1-1.361,2.885A1.5,1.5,0,0,1,311.709,101.312Zm.838-6.321a1.235,1.235,0,0,0-.594.239,3.236,3.236,0,0,0-1.247,2.644l.188,2.278a.8.8,0,0,0,1.387.654,3.235,3.235,0,0,0,1.247-2.644l-.19-2.278a.943.943,0,0,0-.453-.836A.642.642,0,0,0,312.547,94.991Z" transform="translate(-310.431 -94.719)" fill="#333"/>
          </g>
          <g id="Grupo_23099" data-name="Grupo 23099" transform="translate(37.648 21.537)">
            <path id="Caminho_15521" data-name="Caminho 15521" d="M346.069,77.865a.919.919,0,0,1-.476-.082,1.2,1.2,0,0,1-.606-1.057l-.188-2.278a3.527,3.527,0,0,1,1.361-2.885,1.063,1.063,0,0,1,1.806.851l.19,2.278a3.53,3.53,0,0,1-1.362,2.886A1.519,1.519,0,0,1,346.069,77.865Zm.837-6.322a1.242,1.242,0,0,0-.594.24,3.234,3.234,0,0,0-1.247,2.643l.19,2.278a.8.8,0,0,0,1.386.654,3.231,3.231,0,0,0,1.247-2.643l-.188-2.278a.95.95,0,0,0-.453-.837A.668.668,0,0,0,346.906,71.543Z" transform="translate(-344.791 -71.272)" fill="#333"/>
          </g>
          <g id="Grupo_23100" data-name="Grupo 23100" transform="translate(68.562)">
            <path id="Caminho_15522" data-name="Caminho 15522" d="M374.283,58.209a.919.919,0,0,1-.476-.082,1.2,1.2,0,0,1-.606-1.057l-.188-2.278a3.527,3.527,0,0,1,1.361-2.885,1.063,1.063,0,0,1,1.806.851l.188,2.278a3.531,3.531,0,0,1-1.361,2.886A1.518,1.518,0,0,1,374.283,58.209Zm.837-6.322a1.242,1.242,0,0,0-.594.24,3.233,3.233,0,0,0-1.247,2.643l.19,2.278a.8.8,0,0,0,1.386.654,3.234,3.234,0,0,0,1.247-2.643l-.19-2.278a.947.947,0,0,0-.453-.837A.664.664,0,0,0,375.12,51.887Z" transform="translate(-373.005 -51.615)" fill="#333"/>
          </g>
        </g>
        <g id="Grupo_23102" data-name="Grupo 23102" transform="translate(28.6 48.6)">
          <path id="Caminho_15523" data-name="Caminho 15523" d="M312.065,97.645c-.22.152-.419.059-.44-.208l-.053-.629a.938.938,0,0,1,.361-.764c.22-.152.419-.059.44.208l.053.629A.939.939,0,0,1,312.065,97.645Z" transform="translate(-311.57 -95.971)" fill="#333"/>
        </g>
        <g id="Grupo_23103" data-name="Grupo 23103" transform="translate(66.245 22.762)">
          <path id="Caminho_15524" data-name="Caminho 15524" d="M346.422,74.063c-.22.153-.419.059-.442-.207l-.052-.629a.934.934,0,0,1,.361-.764c.22-.153.419-.059.44.207l.053.63A.936.936,0,0,1,346.422,74.063Z" transform="translate(-345.927 -72.39)" fill="#333"/>
        </g>
        <g id="Grupo_23104" data-name="Grupo 23104" transform="translate(97.209 1.028)">
          <path id="Caminho_15525" data-name="Caminho 15525" d="M374.682,54.227c-.22.153-.419.059-.442-.208l-.052-.629a.936.936,0,0,1,.359-.764c.22-.152.419-.059.442.208l.052.629A.933.933,0,0,1,374.682,54.227Z" transform="translate(-374.187 -52.553)" fill="#333"/>
        </g>
      </g>
      <g id="Grupo_23108" data-name="Grupo 23108" transform="translate(160.044 29.139)">
        <g id="Grupo_23106" data-name="Grupo 23106" transform="translate(0.804 0.803)">
          <path id="Caminho_15526" data-name="Caminho 15526" d="M367.95,67.823a2.869,2.869,0,0,1-1.106,2.345c-.679.471-1.286.185-1.354-.639a2.869,2.869,0,0,1,1.106-2.345C367.275,66.713,367.882,67,367.95,67.823Z" transform="translate(-365.484 -66.957)" fill="#666"/>
        </g>
        <g id="Grupo_23107" data-name="Grupo 23107">
          <path id="Caminho_15527" data-name="Caminho 15527" d="M366.415,71.262a1.452,1.452,0,0,1-.749-.131,1.7,1.7,0,0,1-.906-1.465,3.65,3.65,0,0,1,1.448-3.071,1.581,1.581,0,0,1,2.613,1.232,3.647,3.647,0,0,1-1.45,3.071A1.969,1.969,0,0,1,366.415,71.262Zm.791-3.4a.622.622,0,0,0-.082.05,2.074,2.074,0,0,0-.763,1.617.8.8,0,0,0,.013.1.855.855,0,0,0,.081-.049,2.076,2.076,0,0,0,.764-1.618A.641.641,0,0,0,367.206,67.864Z" transform="translate(-364.751 -66.224)" fill="#49626a"/>
        </g>
      </g>
      <g id="Grupo_23109" data-name="Grupo 23109" transform="translate(144.492 57.113)">
        <path id="Caminho_15528" data-name="Caminho 15528" d="M350.557,93.573l4.66-1.7c2.752-1.007,6.616,4.83,5.389,7.048l-3.491,4.456Z" transform="translate(-350.557 -91.754)" fill="#8fdeff"/>
      </g>
      <g id="Grupo_23112" data-name="Grupo 23112" transform="translate(144.489 58.56)">
        <path id="Caminho_15529" data-name="Caminho 15529" d="M359.295,106.255l4.66-1.7c2.751-1.008,6.615,4.829,5.389,7.046l-3.491,4.457Z" transform="translate(-349.717 -91.988)" fill="#8fdeff"/>
        <g id="Grupo_23110" data-name="Grupo 23110" style="mix-blend-mode: multiply;isolation: isolate">
          <path id="Caminho_15530" data-name="Caminho 15530" d="M360.608,98.788l-3.487,4.463-6.568-9.8,1.031-.376,5.354,7.978,3.486-4.463a1.688,1.688,0,0,0,.138-.314A3.245,3.245,0,0,1,360.608,98.788Z" transform="translate(-350.554 -93.075)" fill="#8fdeff"/>
        </g>
        <g id="Grupo_23111" data-name="Grupo 23111" transform="translate(9.575 13.887)" style="mix-blend-mode: multiply;isolation: isolate">
          <path id="Caminho_15531" data-name="Caminho 15531" d="M369.348,111.475l-3.5,4.451-6.554-9.8,1.031-.377,5.34,7.979,3.5-4.451a1.671,1.671,0,0,0,.138-.316A3.247,3.247,0,0,1,369.348,111.475Z" transform="translate(-359.293 -105.749)" fill="#8fdeff"/>
        </g>
      </g>
      <g id="Grupo_23113" data-name="Grupo 23113" transform="translate(105.756 43.356)">
        <path id="Caminho_15532" data-name="Caminho 15532" d="M383.5,137.985l-6.313,4.619a.872.872,0,0,1-1,.019l-2.541-1.734-.233-.159L358.71,130.69l-.222-.148-13.674-9.34-.234-.163-15.953-10.9-.285-.192-13.048-8.913-.089-1.067,6.282-4.418.229-.159,22.374-15.735c1.146-.767,1.986-.61,2.827.776l36.753,56.6A.712.712,0,0,1,383.5,137.985Z" transform="translate(-315.204 -79.199)" fill="#e6e6e6"/>
        <path id="Caminho_15533" data-name="Caminho 15533" d="M380.637,137.232,344.054,80.895c-.105-.173-.467-.737-.714-.717a1.354,1.354,0,0,0-.581.262l-7.225,5.082C351.881,93.307,380.637,137.232,380.637,137.232Z" transform="translate(-313.259 -79.106)" fill="#29abe2"/>
        <path id="Caminho_15534" data-name="Caminho 15534" d="M316.257,99.334l12.581,8.594.291.2,15.964,10.9.223.156,13.664,9.333.233.155L373.9,138.71l2.658,1.814,3.389-2.48L328.059,91.036Z" transform="translate(-315.103 -78.067)" fill="#fff"/>
      </g>
      <g id="Grupo_23114" data-name="Grupo 23114" transform="translate(112.038 59.549)">
        <path id="Caminho_15535" data-name="Caminho 15535" d="M375.677,136.6c-.012-.014-54.511-42.62-54.511-42.62l-.229.159,12.381,9.684-5.013,3.517a1.255,1.255,0,0,0-.52,1.118l.007.08.285.192-.024-.294a.96.96,0,0,1,.411-.872l5.073-3.571,15.272,11.938-4.292,3.016a1.241,1.241,0,0,0-.487.68l.234.163a.975.975,0,0,1,.405-.62l4.362-3.065L361.9,126.161l-3.561,2.494a1.221,1.221,0,0,0-.4.473l.222.148a.985.985,0,0,1,.332-.4l3.62-2.548,13.347,10.437a.566.566,0,0,1-.152.749l-2.452,1.8.233.159,2.377-1.74A.844.844,0,0,0,375.677,136.6Z" transform="translate(-320.937 -93.978)" fill="#333"/>
      </g>
    </g>
    <g id="Grupo_23158" data-name="Grupo 23158" transform="translate(292.828 117.339)">
      <g id="Grupo_23157" data-name="Grupo 23157" transform="translate(0 0)">
        <g id="Grupo_23116" data-name="Grupo 23116" transform="translate(53.132 72.992)">
          <circle id="Elipse_471" data-name="Elipse 471" cx="1.254" cy="1.254" r="1.254" transform="translate(10.249 7.283)" fill="#172024"/>
          <path id="Caminho_15536" data-name="Caminho 15536" d="M348.209,183.218a1.255,1.255,0,1,1-1.255-1.253A1.254,1.254,0,0,1,348.209,183.218Z" transform="translate(-331.629 -176.71)" fill="#172024"/>
          <circle id="Elipse_472" data-name="Elipse 472" cx="1.254" cy="1.254" r="1.254" transform="translate(0 2.029)" fill="#172024"/>
          <circle id="Elipse_473" data-name="Elipse 473" cx="1.254" cy="1.254" r="1.254" transform="translate(3.822)" fill="#172024"/>
        </g>
        <g id="Grupo_23119" data-name="Grupo 23119" transform="translate(18.709)">
          <path id="Caminho_15537" data-name="Caminho 15537" d="M328.868,192.421a5.211,5.211,0,0,1,.443-3.507c-2.623-7.19-8.046-11.2-6.867-18.478-2.3-7.427-7.074-7.9-10.021-18.507a13.814,13.814,0,0,1,0-8.724l14.176.295a10.617,10.617,0,0,1-4.45,7.6c2.4,4.489,3.953,10.555,5.069,17.418,1.532,4.715,3.114,12.727,5.54,19.833a12.681,12.681,0,0,0,4.3,6.278l-1.237,2.446a35.508,35.508,0,0,1-4.008-.943C331.756,195.958,328.868,192.421,328.868,192.421Z" transform="translate(-300.458 -107.427)" fill="#ffb294"/>
          <path id="Caminho_15538" data-name="Caminho 15538" d="M302.418,173.534c-.43-1.639.659-2.633,2.24-3.419,3.213-2.21,1.591-9.371,8.723-12.554,4.41-2.68,7.384-5.7,5.659-9.844l8.193-4.244c.115,5.44-1.077,11.053-4.362,15.4-6,3.511-11.162,7.6-14.264,13.131-.144,1.715.719,3.322,2.475,4.834,1.056.972.373,1.818-.471,2.652l-3.183-1.415-2.063-3.183Z" transform="translate(-301.356 -107.402)" fill="#ffb294"/>
          <path id="Caminho_15539" data-name="Caminho 15539" d="M327.879,184.922c-1.385.9-1.327,2.712-1.032,4.067.649,1.091,1.581,1.759,2.653,3.359l1.01,1.053c2.015,1.339,5.621,1.512,6.888.8.825-1.149-.16-2.282-2.636-4.291.943,1.537-.134,2.287-2.581,2.081-1.164-.176-1.944-1.415-3.21-3.094C327.807,187.136,327.029,186.1,327.879,184.922Z" transform="translate(-299.026 -103.435)" fill="#e02f36"/>
          <path id="Caminho_15540" data-name="Caminho 15540" d="M304.267,168.019c-1.971.352-2.634,1.635-2.826,3.255.324,1.827,2.323,1.955,3.566,3.005,2.859,2.417,2.711,3.743,4.362,4.273,2.008.646,4.993-.073,5.245-.972.207-.737-.341-1.573-2.3-2.534L309.756,173a9.667,9.667,0,0,0,1.41,1.485c.634,1.015.021,1.491-1.179,1.856-1.135-.027-2.129-.981-3.271-2.475l-2.534-3.066A2.132,2.132,0,0,1,304.267,168.019Z" transform="translate(-301.441 -105.053)" fill="#e02f36"/>
          <path id="Caminho_15541" data-name="Caminho 15541" d="M326.93,165.577c-4.541,2.9-8.086,1.72-10.522-.54-2.532-2.346-3.865-5.859-3.865-7.165a1.614,1.614,0,0,0,.564-2.02c-2.644-5.473-2.8-10.4.035-14.679.111-.165.223-.331.344-.5a5.842,5.842,0,0,0,.467.649c2.006,2.428,5.4,2.367,9.443,1.8,1.132-.16,2.315-.361,3.534-.559a64.106,64.106,0,0,0,.02,7.49C327.178,155.1,327.6,160.58,326.93,165.577Z" transform="translate(-300.519 -107.669)" fill="#e02f36"/>
          <path id="Caminho_15542" data-name="Caminho 15542" d="M326.662,143.7a7.222,7.222,0,0,1-6.116,6.821,5.518,5.518,0,0,0-4.316,6.172,40.759,40.759,0,0,1,.179,8.3c-2.532-2.346-3.865-5.859-3.865-7.165a1.614,1.614,0,0,0,.564-2.02c-2.644-5.473-2.8-10.4.035-14.679l.811.153,9.443,1.8Z" transform="translate(-300.519 -107.626)" fill="#89131c" opacity="0.3" style="mix-blend-mode: multiply;isolation: isolate"/>
          <path id="Caminho_15543" data-name="Caminho 15543" d="M324.056,121.123c1.764.44,3.831,5.747,6.661,10.049,2.423,2.565,5.268,7.433,8.36,12.3l-1.175,1.276c-3.153-4.008-7.915-7.217-8.895-9.3l-5.187-6.925Z" transform="translate(-299.299 -109.541)" fill="#ffb294"/>
          <path id="Caminho_15544" data-name="Caminho 15544" d="M326.91,137.763l.237,6.955c-1.349,8.213-12.849,5.875-15.266.924.53-2.389,2.419-3.383,1.474-5.757-1.3-3.271-2.182-5.895-2.182-5.895-.291-.839-.551-1.6-.749-2.3-.729-2.542-.665-4.279,1.457-6.109,4.076-3,8.266-4.916,12.673-4.716,1.8-.52,2.59,3.127,2.091,5.812-.45,2.415,2.825,4.933,2.98,6.623A4.418,4.418,0,0,1,326.91,137.763Z" transform="translate(-300.622 -109.57)" fill="#fff"/>
          <path id="Caminho_15545" data-name="Caminho 15545" d="M327.11,143.949c-1.349,8.213-12.849,5.875-15.266.924.53-2.389,2.419-3.383,1.474-5.757-1.3-3.271-2.182-5.895-2.182-5.895-.291-.839-.551-1.6-.749-2.3.213-1.233.481-2.3.749-2.023,4.951,5.14,5.365,11.406,10.36,10.794,2.775-.342,3.287-3.558,3.287-3.558a2.818,2.818,0,0,0,2.091.858Z" transform="translate(-300.585 -108.801)" fill="#227fbc" opacity="0.2" style="mix-blend-mode: multiply;isolation: isolate"/>
          <path id="Caminho_15546" data-name="Caminho 15546" d="M311.95,126.17c-1.455.394-3.512,5.648-5.638,11.474-1.875,2.477-2.515,8.213-4.44,12.849l1.611,1.729c1.69-4.99,5.108-8.408,5.5-12.5,1.687-2.43,3.63-4.834,4.912-6.68C315.7,130.611,314.285,126.17,311.95,126.17Z" transform="translate(-301.4 -109.058)" fill="#ffb294"/>
          <path id="Caminho_15547" data-name="Caminho 15547" d="M325.668,164.758s-1.709-6.484-1.36-10.223a22.442,22.442,0,0,1,1.379-5.3C325.915,154.284,326.333,159.761,325.668,164.758Z" transform="translate(-299.257 -106.85)" fill="#89131c" opacity="0.3" style="mix-blend-mode: multiply;isolation: isolate"/>
          <g id="Grupo_23118" data-name="Grupo 23118" transform="translate(12.803)">
            <path id="Caminho_15548" data-name="Caminho 15548" d="M316.953,118.111l-.483,5.263c1.078,5.356,5.856,10.737,6.832,12.287.6-2.613-.028-8.412-.888-10.967l-.11-2.893Z" transform="translate(-312.805 -109.829)" fill="#ffb294"/>
            <path id="Caminho_15549" data-name="Caminho 15549" d="M316.825,120.45c-.02.061.791,5.675,3.839,5.511,1.91-.1,1.548-4.316,1.548-4.316Z" transform="translate(-312.771 -109.605)" fill="#ffb294" opacity="0.5" style="mix-blend-mode: multiply;isolation: isolate"/>
            <path id="Caminho_15550" data-name="Caminho 15550" d="M322.481,124.6c-1.39.622-3.412-.854-4.33-1.625a2.574,2.574,0,0,1-.714-.972l-.747-1.777-1.175.091s-2.042-1.1-1.722-5.121c.16-2.012,2.717-4.029,4.847-4.04,3.354-.016,4.582,2.041,5.473,3.414s.38,4.192.38,4.192S324.348,123.759,322.481,124.6Z" transform="translate(-313.065 -110.495)" fill="#ffb294"/>
            <path id="Caminho_15551" data-name="Caminho 15551" d="M318.374,122.059a10.954,10.954,0,0,0,4.22-7.2s1.59-.42,2.043,3.327c1.8-3.068.893-6.149-2.888-7.259-4.431-1.3-8.81.813-8.618,5.61a12.046,12.046,0,0,0,4.251,9.08S317.34,122.872,318.374,122.059Z" transform="translate(-313.125 -110.552)"/>
            <g id="Grupo_23117" data-name="Grupo 23117" transform="translate(6.96 6.075)">
              <path id="Caminho_15552" data-name="Caminho 15552" d="M324.9,116.536c-.037-.467-.194-.582-.385-.25a3.588,3.588,0,0,1-.758.911,2.189,2.189,0,0,0-.491.822,2.809,2.809,0,0,1-.513.343c-.1-.17-.309-.2-.562-.08a5.655,5.655,0,0,1-1.915.577c-.451.066-.818.328-.8.671.02.307.03.466.038.813a.73.73,0,0,0,.8.7,5.72,5.72,0,0,0,1.637-.4,1.186,1.186,0,0,0,.65-.841c.053-.255.078-.382.13-.638a.731.731,0,0,1,.277-.419c.114-.051.2-.014.223.112.035.209.053.312.087.519.048.29.272.364.519.156a2.283,2.283,0,0,0,1.015-1.621A5.452,5.452,0,0,0,324.9,116.536Z" transform="translate(-319.477 -116.096)"/>
            </g>
          </g>
        </g>
        <g id="Grupo_23150" data-name="Grupo 23150" transform="translate(0 40.561)">
          <g id="Grupo_23132" data-name="Grupo 23132" transform="translate(3.233 35.633)">
            <g id="Grupo_23128" data-name="Grupo 23128">
              <g id="Grupo_23123" data-name="Grupo 23123">
                <g id="Grupo_23122" data-name="Grupo 23122">
                  <g id="Grupo_23120" data-name="Grupo 23120" transform="translate(0.595)">
                    <path id="Caminho_15553" data-name="Caminho 15553" d="M287.86,180.815l1.028-.591a1.412,1.412,0,0,1,1.415.138,4.425,4.425,0,0,1,2.008,3.479,1.426,1.426,0,0,1-.595,1.314l-1.029.589a1.42,1.42,0,0,0,.595-1.313,4.419,4.419,0,0,0-2.008-3.479A1.41,1.41,0,0,0,287.86,180.815Z" transform="translate(-287.86 -180.092)" fill="#46626e"/>
                  </g>
                  <g id="Grupo_23121" data-name="Grupo 23121" transform="translate(0 0.59)">
                    <path id="Caminho_15554" data-name="Caminho 15554" d="M287.317,182.076c0-1.287.9-1.812,2.008-1.175a4.419,4.419,0,0,1,2.008,3.479c0,1.286-.9,1.811-2.008,1.175A4.422,4.422,0,0,1,287.317,182.076Z" transform="translate(-287.317 -180.63)" fill="#46626e"/>
                  </g>
                </g>
              </g>
              <g id="Grupo_23127" data-name="Grupo 23127">
                <g id="Grupo_23126" data-name="Grupo 23126" style="isolation: isolate">
                  <g id="Grupo_23124" data-name="Grupo 23124" transform="translate(0.595)">
                    <path id="Caminho_15555" data-name="Caminho 15555" d="M287.86,180.815l1.028-.591a1.412,1.412,0,0,1,1.415.138,4.425,4.425,0,0,1,2.008,3.479,1.426,1.426,0,0,1-.595,1.314l-1.029.589a1.42,1.42,0,0,0,.595-1.313,4.419,4.419,0,0,0-2.008-3.479A1.41,1.41,0,0,0,287.86,180.815Z" transform="translate(-287.86 -180.092)"/>
                  </g>
                  <g id="Grupo_23125" data-name="Grupo 23125" transform="translate(0 0.59)">
                    <path id="Caminho_15556" data-name="Caminho 15556" d="M287.317,182.076c0-1.287.9-1.812,2.008-1.175a4.419,4.419,0,0,1,2.008,3.479c0,1.286-.9,1.811-2.008,1.175A4.422,4.422,0,0,1,287.317,182.076Z" transform="translate(-287.317 -180.63)" fill="#4d4d4d"/>
                  </g>
                </g>
              </g>
            </g>
            <g id="Grupo_23131" data-name="Grupo 23131" transform="translate(1.033 1.927)">
              <g id="Grupo_23129" data-name="Grupo 23129">
                <path id="Caminho_15557" data-name="Caminho 15557" d="M288.26,182.552c0-.625.436-.88.975-.571a2.148,2.148,0,0,1,.975,1.69c0,.625-.436.88-.975.57A2.146,2.146,0,0,1,288.26,182.552Z" transform="translate(-288.26 -181.85)"/>
              </g>
              <g id="Grupo_23130" data-name="Grupo 23130">
                <path id="Caminho_15558" data-name="Caminho 15558" d="M288.26,182.552c0-.625.436-.88.975-.571a2.148,2.148,0,0,1,.975,1.69c0,.625-.436.88-.975.57A2.146,2.146,0,0,1,288.26,182.552Z" transform="translate(-288.26 -181.85)"/>
              </g>
            </g>
          </g>
          <g id="Grupo_23145" data-name="Grupo 23145" transform="translate(13.031 29.458)">
            <g id="Grupo_23141" data-name="Grupo 23141">
              <g id="Grupo_23136" data-name="Grupo 23136">
                <g id="Grupo_23135" data-name="Grupo 23135">
                  <g id="Grupo_23133" data-name="Grupo 23133" transform="translate(1.427 0.095)">
                    <path id="Caminho_15559" data-name="Caminho 15559" d="M297.561,175.265l1.029-.589a1.41,1.41,0,0,1,1.413.138,4.42,4.42,0,0,1,2.008,3.479,1.42,1.42,0,0,1-.595,1.313l-1.028.591a1.425,1.425,0,0,0,.595-1.314,4.423,4.423,0,0,0-2.009-3.479A1.41,1.41,0,0,0,297.561,175.265Z" transform="translate(-297.561 -174.543)" fill="#46626e"/>
                  </g>
                  <g id="Grupo_23134" data-name="Grupo 23134">
                    <ellipse id="Elipse_474" data-name="Elipse 474" cx="1.645" cy="2.841" rx="1.645" ry="2.841" transform="translate(0 1.637) rotate(-29.838)" fill="#46626e"/>
                  </g>
                </g>
              </g>
              <g id="Grupo_23140" data-name="Grupo 23140">
                <g id="Grupo_23139" data-name="Grupo 23139" style="isolation: isolate">
                  <g id="Grupo_23137" data-name="Grupo 23137" transform="translate(1.427 0.095)">
                    <path id="Caminho_15560" data-name="Caminho 15560" d="M297.561,175.265l1.029-.589a1.41,1.41,0,0,1,1.413.138,4.42,4.42,0,0,1,2.008,3.479,1.42,1.42,0,0,1-.595,1.313l-1.028.591a1.425,1.425,0,0,0,.595-1.314,4.423,4.423,0,0,0-2.009-3.479A1.41,1.41,0,0,0,297.561,175.265Z" transform="translate(-297.561 -174.543)"/>
                  </g>
                  <g id="Grupo_23138" data-name="Grupo 23138">
                    <ellipse id="Elipse_475" data-name="Elipse 475" cx="1.645" cy="2.841" rx="1.645" ry="2.841" transform="translate(0 1.637) rotate(-29.838)" fill="#4d4d4d"/>
                  </g>
                </g>
              </g>
            </g>
            <g id="Grupo_23144" data-name="Grupo 23144" transform="translate(1.865 2.022)">
              <g id="Grupo_23142" data-name="Grupo 23142">
                <path id="Caminho_15561" data-name="Caminho 15561" d="M297.961,177c0-.625.436-.879.975-.57a2.143,2.143,0,0,1,.975,1.688c0,.626-.435.88-.975.571A2.148,2.148,0,0,1,297.961,177Z" transform="translate(-297.961 -176.301)"/>
              </g>
              <g id="Grupo_23143" data-name="Grupo 23143">
                <path id="Caminho_15562" data-name="Caminho 15562" d="M297.961,177c0-.625.436-.879.975-.57a2.143,2.143,0,0,1,.975,1.688c0,.626-.435.88-.975.571A2.148,2.148,0,0,1,297.961,177Z" transform="translate(-297.961 -176.301)"/>
              </g>
            </g>
          </g>
          <g id="Grupo_23149" data-name="Grupo 23149" transform="translate(0 2.425)">
            <g id="Grupo_23147" data-name="Grupo 23147" transform="translate(0 5.08)">
              <path id="Caminho_15563" data-name="Caminho 15563" d="M308.442,160.91,304.883,176.9a7.814,7.814,0,0,1-3.373,4.333l-9.124,5.27c-.91.523-1.619.548-1.973.16.025.025.034.05.059.077l-5.793-4.916a1.357,1.357,0,0,1-.244-1.383l.489-2.185.2-.911,2.866-12.884a7.845,7.845,0,0,1,3.374-4.343l9.124-5.262c.86-.5,1.543-.557,1.914-.236l.641.548.413.345,4.739,4.015c-.016-.018-.043-.018-.068-.034C308.467,159.73,308.6,160.2,308.442,160.91Z" transform="translate(-284.366 -154.42)" fill="#fbb03b"/>
              <path id="Caminho_15564" data-name="Caminho 15564" d="M303.272,155.447a2.761,2.761,0,0,0-1.072.388l-9.124,5.271a7.593,7.593,0,0,0-3.272,4.2l-3.086,13.846-.405-.093,3.078-13.846a8.1,8.1,0,0,1,3.474-4.477l9.124-5.262a3.394,3.394,0,0,1,.869-.371Z" transform="translate(-284.18 -154.355)" fill="#27373d"/>
              <g id="Grupo_23146" data-name="Grupo 23146" transform="translate(5.796 4.914)">
                <path id="Caminho_15565" data-name="Caminho 15565" d="M291.88,186.072,301,180.807a7.835,7.835,0,0,0,3.378-4.342l3.559-15.986c.337-1.513-.629-2.024-2.157-1.141l-9.121,5.265a7.832,7.832,0,0,0-3.377,4.337l-3.558,15.986C289.386,186.439,290.351,186.955,291.88,186.072Z" transform="translate(-289.657 -158.905)" fill="#27373d"/>
              </g>
              <path id="Caminho_15566" data-name="Caminho 15566" d="M295.993,161.361s2.366-3.174,5.317-2.726l-1.16-1.028a7.911,7.911,0,0,0-4.875,2.819Z" transform="translate(-283.322 -154.115)" fill="#27373d"/>
              <path id="Caminho_15567" data-name="Caminho 15567" d="M292.574,180.975l-.5.675-7.2-5.4.2-.911Z" transform="translate(-284.318 -152.418)" fill="#27373d"/>
            </g>
            <path id="Caminho_15568" data-name="Caminho 15568" d="M300.534,152.377a.421.421,0,0,0-.5.33l-2.008,9.994c-.107.433.6.459.836.122l2-9.949A.422.422,0,0,0,300.534,152.377Z" transform="translate(-283.06 -149.537)" fill="#fff"/>
            <path id="Caminho_15569" data-name="Caminho 15569" d="M304,150.338a.422.422,0,0,0-.5.33l-2.061,10.252c-.144.366.489.5.82.2l2.068-10.291A.422.422,0,0,0,304,150.338Z" transform="translate(-282.734 -149.732)" fill="#fff"/>
            <path id="Caminho_15570" data-name="Caminho 15570" d="M299.368,154.479a.843.843,0,0,1-.423-1.573l5.21-3.009a.844.844,0,0,1,.844,1.462l-5.21,3.008A.837.837,0,0,1,299.368,154.479Z" transform="translate(-283.012 -149.784)" fill="#27373d"/>
            <g id="Grupo_23148" data-name="Grupo 23148" transform="translate(5.796 9.994)">
              <path id="Caminho_15571" data-name="Caminho 15571" d="M291.88,186.072,301,180.807a7.835,7.835,0,0,0,3.378-4.342l3.559-15.986c.337-1.513-.629-2.024-2.157-1.141l-9.121,5.265a7.832,7.832,0,0,0-3.377,4.337l-3.558,15.986C289.386,186.439,290.351,186.955,291.88,186.072Z" transform="translate(-289.657 -158.905)" fill="#ba7200"/>
            </g>
          </g>
          <path id="Caminho_15572" data-name="Caminho 15572" d="M300.677,149.854a5.668,5.668,0,0,0-.836,2.686l1-.525a4.718,4.718,0,0,0,.76,1.814.554.554,0,0,0,.369.284c.313.024.432-.414.369-.722-.13-.652-.542-1.363-.184-1.924.328-.513,1.1-.526,1.526-.959a1.972,1.972,0,0,0,.435-1.035c.161-.806-.037-2.587-1.113-1.624A15.747,15.747,0,0,0,300.677,149.854Z" transform="translate(-282.885 -147.571)" fill="#ffb294"/>
          <path id="Caminho_15573" data-name="Caminho 15573" d="M299.972,154.007c.053.226.216.216.433.3s.445-.156.686-.124a1.418,1.418,0,0,0,1.081-.377c.145-.112.525.036.654-.093.1-.1.16-.229.264-.321a1.4,1.4,0,0,0,.518-1.344c-.08-.5-.595-.129-.692-.276a.4.4,0,0,0-.519-.132c-.554.3-.71-.081-1.123.466-.1.134-.315.141-.4.286-.119.208-.026.469-.036.709a.945.945,0,0,1-.621.747A2.381,2.381,0,0,0,299.972,154.007Z" transform="translate(-282.873 -147.186)" fill="#ffb294"/>
        </g>
        <g id="Grupo_23156" data-name="Grupo 23156" transform="translate(52.041 50.302)">
          <g id="Grupo_23154" data-name="Grupo 23154">
            <path id="Caminho_15574" data-name="Caminho 15574" d="M351.486,178.786v4.11a1.887,1.887,0,0,1-.778,1.716l-1.845,1.056-.689.4-2.959,1.688a1.819,1.819,0,0,1-1.84-.176l-8.889-5.1a5.734,5.734,0,0,1-2.615-4.539l-.005-16.445a1.722,1.722,0,0,1,.985-1.785,1.485,1.485,0,0,0-.214.079l3.483-1.993.489-.279,1.526-.88a1.828,1.828,0,0,1,1.847.181l8.889,5.1a5.742,5.742,0,0,1,2.611,4.534l0,11.77Z" transform="translate(-331.862 -156.46)" fill="#46626e"/>
            <path id="Caminho_15575" data-name="Caminho 15575" d="M345.965,163.009l-9.73-5.585-.489.279,9.975,5.725a5.49,5.49,0,0,1,2.5,4.323l0,12.046,0,.568.483-.281v-.568l0-11.763A6.056,6.056,0,0,0,345.965,163.009Z" transform="translate(-331.49 -156.368)" fill="#27373d"/>
            <g id="Grupo_23153" data-name="Grupo 23153" transform="translate(0 3.153)">
              <g id="Grupo_23151" data-name="Grupo 23151">
                <path id="Caminho_15576" data-name="Caminho 15576" d="M345.988,169.325v16.441c0,1.676-1.168,2.368-2.615,1.537l-1.21-.695-.463-.267-7.214-4.137a5.776,5.776,0,0,1-2.623-4.539v-16.44c0-1.676,1.176-2.363,2.623-1.535l8.887,5.1A5.768,5.768,0,0,1,345.988,169.325Z" transform="translate(-331.862 -159.338)" fill="#27373d"/>
              </g>
              <g id="Grupo_23152" data-name="Grupo 23152">
                <path id="Caminho_15577" data-name="Caminho 15577" d="M345.988,169.325v16.441c0,1.676-1.168,2.368-2.615,1.537l-1.21-.695-.463-.267-7.214-4.137a5.776,5.776,0,0,1-2.623-4.539v-16.44c0-1.676,1.176-2.363,2.623-1.535l8.887,5.1A5.768,5.768,0,0,1,345.988,169.325Z" transform="translate(-331.862 -159.338)" fill="#27373d"/>
              </g>
            </g>
            <path id="Caminho_15578" data-name="Caminho 15578" d="M350.252,176.885l-2.407,1.391-.483.28-2.608,1.5v-.568l2.605-1.5.486-.28,2.4-1.388Z" transform="translate(-330.628 -154.56)" fill="#27373d"/>
          </g>
          <g id="Grupo_23155" data-name="Grupo 23155" transform="translate(2.74 6.785)">
            <path id="Caminho_15579" data-name="Caminho 15579" d="M334.941,179.657a1.2,1.2,0,0,1-.578-.913V162.987c0-.32.26-.43.578-.245a1.2,1.2,0,0,1,.579.913v15.757C335.52,179.732,335.261,179.841,334.941,179.657Z" transform="translate(-334.363 -162.652)" fill="#46626e"/>
            <path id="Caminho_15580" data-name="Caminho 15580" d="M338.057,181.364a1.2,1.2,0,0,1-.579-.913V164.694c0-.32.26-.43.579-.245a1.2,1.2,0,0,1,.579.913v15.757C338.635,181.439,338.376,181.548,338.057,181.364Z" transform="translate(-334.065 -162.489)" fill="#46626e"/>
            <path id="Caminho_15581" data-name="Caminho 15581" d="M341.172,183.071a1.2,1.2,0,0,1-.579-.913V166.4c0-.32.259-.43.579-.244a1.2,1.2,0,0,1,.579.912v15.758C341.75,183.146,341.491,183.255,341.172,183.071Z" transform="translate(-333.767 -162.326)" fill="#46626e"/>
          </g>
        </g>
        <path id="Caminho_15582" data-name="Caminho 15582" d="M341.54,165.059a.546.546,0,0,1-.546-.546V147.048l-4.054-2.34v16.833a.547.547,0,0,1-1.094,0v-17.78a.547.547,0,0,1,.82-.473l5.148,2.972a.547.547,0,0,1,.273.473v17.781A.546.546,0,0,1,341.54,165.059Z" transform="translate(-279.44 -107.427)" fill="#999"/>
        <path id="Caminho_15583" data-name="Caminho 15583" d="M342.277,147.167a.828.828,0,0,1-.712.41.854.854,0,0,1-.411-.108l-3.851-2.223-1.294-.748a.544.544,0,0,1-.072-.046.821.821,0,0,1,.118-1.4.83.83,0,0,1,.775.026l1.176.68.22.125,2.741,1.582,1.009.585A.818.818,0,0,1,342.277,147.167Z" transform="translate(-279.464 -107.45)" fill="#27373d"/>
        <path id="Caminho_15584" data-name="Caminho 15584" d="M340.465,145.434l-2.222-1.282c-.172-.1-.436-.1-.536-.31-.168-.358.4-.6.671-.569a1.746,1.746,0,0,1,.838.449,1.493,1.493,0,0,1,.7,1.811l-.232,1.4a.449.449,0,0,1-.135.3c-.152.112-.374-.012-.468-.175-.277-.484.082-1.172-.243-1.625-.192-.267-.579-.505-.743-.745a8.278,8.278,0,0,0-.54-.842,1.428,1.428,0,0,0-.424-.294,3.312,3.312,0,0,0-.622-.317c.069-.231.124-.469.184-.7l-1.283-1.681.827-.738,1.641,1.455.878.719L340,143.8A14.822,14.822,0,0,1,340.465,145.434Z" transform="translate(-279.482 -107.723)" fill="#ffb294"/>
        <path id="Caminho_15585" data-name="Caminho 15585" d="M336.983,144.856a.7.7,0,0,1,.081-.27.289.289,0,0,1,.229-.147.3.3,0,0,1,.247.154.874.874,0,0,1,.094.288.318.318,0,0,1,.365-.347c.145.018.272.225.339.5a.383.383,0,0,1,.447-.3.5.5,0,0,1,.339.356,1.483,1.483,0,0,1,.031.512l-.038.689a.226.226,0,0,1-.015.081.167.167,0,0,1-.094.08.542.542,0,0,1-.437-.062,1.431,1.431,0,0,0-.417-.179c-.142-.021-.3.015-.421-.069s-.14-.273-.256-.369c-.15-.126-.406-.058-.545-.2-.073-.076-.087-.191-.159-.264a2.443,2.443,0,0,1-.27-.322C336.312,144.674,336.658,144.169,336.983,144.856Z" transform="translate(-279.382 -107.309)" fill="#ffb294"/>
      </g>
    </g>
  </g>
</svg>
